<svg xmlns="http://www.w3.org/2000/svg" width="60" height="60" viewBox="0 0 60 60">
  <defs>
    <style>
      .a {
        fill: #6495ed;
      }

      .b {
        fill: #19354c;
      }

      .c {
        fill: none;
        stroke: #274d71;
        stroke-miterlimit: 10;
        stroke-width: 0.68px;
      }
    </style>
  </defs>
  <title>Artboard 1</title>
  <g>
    <g>
      <g>
        <g>
          <polygon class="a" points="8.55 29.45 7.86 29.3 11.7 11.75 22.15 27.06 21.57 27.46 12.04 13.49 8.55 29.45"/>
          <polygon class="a" points="40.24 30.85 36.75 14.91 28.35 27.59 27.76 27.2 37.09 13.14 40.92 30.7 40.24 30.85"/>
          <rect class="a" x="28.33" y="21.77" width="12.14" height="0.7" transform="translate(-2.39 39.99) rotate(-58.65)"/>
          <path class="a" d="M28.58,47.88H22.33l-8.92-4.75-.88-2.29-1.87-1L7.82,29.08,18.3,26.91H31.91l.06,0,8.72,3.13L38.42,39.8l-2.11,1-.48,2.26Zm-6.07-.7h5.86l6.83-4.51.49-2.32,2.12-1,2-8.81-8.07-2.9H18.38l-9.68,2,2.56,9.71,1.84,1L14,42.63Z"/>
          <rect class="a" x="14.43" y="14.54" width="0.7" height="13.72" transform="translate(-8.95 10.76) rotate(-31.22)"/>
          <polyline class="a" points="19.14 46.07 20.73 50.27 22.42 47.46"/>
          <polyline class="a" points="28.48 47.46 30.16 50.7 31.61 45.91"/>
          <polyline class="a" points="21.02 47.46 22.7 49.15 23.88 47.96 25.16 49.26 26.67 47.97 28.05 49.15 29.32 47.46"/>
          <polyline class="a" points="30.87 46.33 32.27 46.89 32.9 44.82"/>
          <polyline class="a" points="19.75 46.47 18.62 47.18 17.78 45.35"/>
          <path class="a" d="M25.17,48.32,23.71,45.5l-.58.82-1.54-2.56L25.17,43l3.58.79-1.57,2.59-.56-1Zm-1.4-3.83,1.39,2.67,1.41-2.85.62,1,.73-1.22-2.75-.61-2.76.61.76,1.25Z"/>
          <path class="a" d="M28.17,41.17l.1-.54c0-.18.89-4.5,2.21-5.81s6-2.17,6.24-2.21l.42-.07V33c0,.43-.1,4.22-1.37,5.46S28.93,41,28.7,41Zm8.24-7.79c-1.51.29-4.51,1-5.43,1.94s-1.58,3.46-1.9,4.91c1.81-.46,5.32-1.47,6.19-2.32S36.35,34.68,36.41,33.38Z"/>
          <path class="a" d="M21.18,41.17,20.65,41c-.23,0-5.75-1.35-7.06-2.62a5.81,5.81,0,0,1-1.19-3.25A17.71,17.71,0,0,1,12.22,33v-.42l.42.07c.19,0,4.85.83,6.24,2.21s2.17,5.63,2.21,5.81Zm-8.24-7.79c.06,1.3.34,3.75,1.14,4.53s4.37,1.86,6.19,2.32c-.32-1.45-1.05-4.07-1.9-4.91S14.45,33.67,12.94,33.38Z"/>
          <rect class="a" x="13.85" y="37.42" width="0.52" height="7.04" transform="translate(-28.66 34.12) rotate(-61.93)"/>
          <rect class="a" x="31.56" y="40.68" width="7.04" height="0.52" transform="translate(-15.14 21.33) rotate(-28.07)"/>
        </g>
        <polygon class="a" points="33.28 27.31 36.99 21.35 38.31 29.37 33.28 27.31"/>
        <polygon class="a" points="15.92 27.76 11.72 19.87 10.11 28.97 15.92 27.76"/>
      </g>
      <g>
        <g>
          <polygon class="a" points="19.81 29.45 19.12 29.3 22.96 11.75 33.41 27.06 32.83 27.46 23.3 13.49 19.81 29.45"/>
          <polygon class="a" points="51.5 30.85 48.02 14.91 39.61 27.59 39.02 27.2 48.35 13.14 52.18 30.7 51.5 30.85"/>
          <rect class="a" x="39.59" y="21.77" width="12.14" height="0.7" transform="translate(3.01 49.61) rotate(-58.65)"/>
          <path class="a" d="M39.84,47.88H33.6l-8.93-4.75-.88-2.29-1.87-1L19.09,29.08l10.47-2.17H43.17l.06,0L52,30.06,49.68,39.8l-2.11,1-.48,2.26Zm-6.07-.7h5.86l6.83-4.51L47,40.35l2.12-1,2-8.81-8.07-2.9H29.64l-9.68,2,2.56,9.71,1.84,1,.88,2.28Z"/>
          <rect class="a" x="25.69" y="14.54" width="0.7" height="13.72" transform="matrix(0.86, -0.52, 0.52, 0.86, -7.32, 16.6)"/>
          <polyline class="a" points="30.41 46.07 31.99 50.27 33.68 47.46"/>
          <polyline class="a" points="39.73 47.46 41.42 50.7 42.88 45.91"/>
          <polyline class="a" points="32.27 47.46 33.96 49.15 35.14 47.96 36.42 49.26 37.93 47.97 39.31 49.15 40.58 47.46"/>
          <polyline class="a" points="42.13 46.33 43.54 46.89 44.16 44.82"/>
          <polyline class="a" points="31.01 46.47 29.88 47.18 29.04 45.35"/>
          <path class="a" d="M36.43,48.32,35,45.5l-.58.82-1.54-2.56L36.43,43l3.58.79-1.57,2.59-.56-1ZM35,44.49l1.39,2.67,1.41-2.85.62,1,.73-1.22-2.75-.61-2.76.61.76,1.25Z"/>
          <path class="a" d="M39.43,41.17l.1-.54c0-.18.89-4.5,2.21-5.81s6-2.17,6.24-2.21l.42-.07V33c0,.43-.1,4.22-1.37,5.46S40.19,41,40,41Zm8.24-7.79c-1.51.29-4.51,1-5.43,1.94s-1.58,3.46-1.9,4.91c1.81-.46,5.32-1.47,6.19-2.32S47.61,34.68,47.67,33.38Z"/>
          <path class="a" d="M32.44,41.17,31.91,41c-.23,0-5.75-1.35-7.06-2.62a5.81,5.81,0,0,1-1.19-3.25A20.26,20.26,0,0,1,23.48,33v-.42l.42.07c.2,0,4.85.83,6.24,2.21s2.17,5.63,2.21,5.81ZM24.2,33.38c.06,1.3.34,3.75,1.14,4.53s4.38,1.86,6.19,2.32c-.32-1.45-1.05-4.07-1.9-4.91S25.71,33.67,24.2,33.38Z"/>
          <rect class="a" x="25.11" y="37.42" width="0.52" height="7.04" transform="translate(-22.7 44.06) rotate(-61.93)"/>
          <rect class="a" x="42.82" y="40.68" width="7.04" height="0.52" transform="translate(-13.82 26.63) rotate(-28.07)"/>
        </g>
        <polygon class="a" points="44.54 27.31 48.25 21.35 49.57 29.37 44.54 27.31"/>
        <polygon class="a" points="27.18 27.76 22.98 19.87 21.37 28.97 27.18 27.76"/>
      </g>
    </g>
    <g>
      <g>
        <polygon class="b" points="14.18 32.26 13.49 32.11 17.33 14.56 27.78 29.88 27.2 30.27 17.66 16.31 14.18 32.26"/>
        <polygon class="b" points="45.87 33.67 42.38 17.73 33.98 30.41 33.39 30.02 42.72 15.96 46.55 33.52 45.87 33.67"/>
        <rect class="b" x="33.96" y="24.59" width="12.14" height="0.7" transform="translate(-2.09 46.15) rotate(-58.65)"/>
        <path class="b" d="M34.21,50.69H28L19,46l-.88-2.29-1.87-1L13.46,31.9l10.47-2.18H37.54l.06,0,8.72,3.13-2.27,9.75-2.11,1-.48,2.26ZM28.14,50H34l6.83-4.51.49-2.31,2.12-1,2.05-8.81-8.07-2.89H24l-9.68,2,2.56,9.7,1.84,1,.88,2.28Z"/>
        <rect class="b" x="20.06" y="17.35" width="0.7" height="13.72" transform="translate(-9.59 14.09) rotate(-31.22)"/>
        <polyline class="b" points="24.77 48.89 26.36 53.09 28.05 50.27"/>
        <polyline class="b" points="34.1 50.27 35.79 53.51 37.24 48.72"/>
        <polyline class="b" points="26.64 50.27 28.33 51.96 29.51 50.77 30.79 52.08 32.3 50.78 33.68 51.96 34.95 50.27"/>
        <polyline class="b" points="36.5 49.15 37.91 49.71 38.53 47.64"/>
        <polyline class="b" points="25.38 49.29 24.25 49.99 23.41 48.16"/>
        <path class="b" d="M30.8,51.13l-1.46-2.82-.58.82-1.54-2.55,3.58-.8,3.58.8-1.57,2.58-.56-.94Zm-1.4-3.82L30.79,50l1.41-2.85.62,1,.73-1.22-2.75-.61L28,46.93l.76,1.24Z"/>
        <path class="b" d="M33.8,44l.1-.53c0-.18.89-4.51,2.21-5.81s6-2.18,6.24-2.21l.42-.07v.42c0,.43-.1,4.21-1.37,5.45s-6.83,2.57-7.06,2.63ZM42,36.2c-1.51.29-4.51,1-5.43,1.94S35,41.6,34.71,43c1.81-.45,5.32-1.46,6.19-2.31S42,37.49,42,36.2Z"/>
        <path class="b" d="M26.81,44l-.53-.12c-.23-.06-5.75-1.35-7.06-2.63A5.77,5.77,0,0,1,18,38a18,18,0,0,1-.18-2.21v-.42l.42.07c.19,0,4.85.82,6.24,2.21s2.17,5.63,2.21,5.81ZM18.57,36.2c.06,1.29.34,3.75,1.14,4.53S24.09,42.59,25.9,43c-.32-1.44-1-4.07-1.9-4.9S20.08,36.49,18.57,36.2Z"/>
        <rect class="b" x="19.48" y="40.24" width="0.52" height="7.04" transform="translate(-28.16 40.58) rotate(-61.93)"/>
        <rect class="b" x="37.19" y="43.5" width="7.04" height="0.52" transform="translate(-15.8 24.31) rotate(-28.07)"/>
      </g>
      <polygon class="b" points="38.91 30.12 42.62 24.16 43.94 32.19 38.91 30.12"/>
      <polygon class="b" points="21.55 30.58 17.36 22.68 15.74 31.79 21.55 30.58"/>
    </g>
  </g>
  <g>
    <path class="c" d="M60.09,30.66c0,2.22-2.41,4.13-2.88,6.21s.84,4.91-.09,6.85-3.95,2.65-5.3,4.33-1.36,4.78-3,6.13-4.69.67-6.66,1.62S38.84,59.51,36.7,60s-4.48-1.44-6.7-1.44S25.38,60.47,23.31,60s-3.48-3.26-5.41-4.2-5-.27-6.66-1.62-1.7-4.43-3.05-6.13-4.35-2.37-5.3-4.33.4-4.71-.09-6.85-2.88-4-2.88-6.21,2.41-4.14,2.88-6.21S2,19.53,2.89,17.6s4-2.65,5.3-4.34,1.36-4.77,3.05-6.13,4.69-.67,6.66-1.61,3.27-3.71,5.41-4.2S27.79,2.76,30,2.76,34.63.85,36.7,1.32s3.48,3.26,5.41,4.2,5,.27,6.66,1.61,1.7,4.44,3,6.13,4.35,2.38,5.3,4.34-.4,4.7.09,6.85S60.09,28.44,60.09,30.66Z"/>
    <path class="c" d="M53.36,49.63c-1.4,1.72-4.48,1.69-6.16,3S44.76,57,42.81,57.89s-4.73-.43-6.85,0-4.06,2.85-6.23,2.83-4.06-2.44-6.18-2.94-4.88.82-6.85-.16-2.57-3.94-4.29-5.34-4.79-1.43-6.1-3.1-.65-4.73-1.56-6.67S1.07,39.2.61,37.09,2.09,32.57,2.1,30.4.22,25.82.73,23.69,4,20.29,5,18.32s.28-4.91,1.68-6.64,4.48-1.69,6.16-3,2.44-4.34,4.39-5.25,4.73.43,6.84,0S28.11.55,30.28.57,34.34,3,36.46,3.51s4.88-.82,6.85.16S45.88,7.61,47.6,9s4.79,1.43,6.1,3.1.64,4.73,1.56,6.67,3.68,3.34,4.14,5.45-1.48,4.51-1.5,6.69,1.89,4.58,1.38,6.7S56,41,55,43,54.76,47.91,53.36,49.63Z"/>
  </g>
</svg>
