<svg id="Layer_1" data-name="Layer 1" xmlns="http://www.w3.org/2000/svg" width="512" height="512" viewBox="0 0 512 512">
  <title>favicon_1</title>
  <g>
    <circle cx="256" cy="256" r="256" fill="#f9e8f1"/>
    <path d="M24,168c-8-40,8-72,29.86-76.08,18.88-3.53,29.86,11.74,29.86,91.4,0,187.5-23,241.23,20.28,240.68s28-240,48.89-240C168,184,149.54,488,200,488c66.2,0,.47-436.12,21.87-459.83,6.09-6.74,12.2-10.64,17.86-10.35" fill="none" stroke="#090f63" stroke-linecap="round" stroke-miterlimit="10" stroke-width="35.2"/>
    <g>
      <path d="M343,27V483.62" fill="none" stroke="#090f63" stroke-linecap="round" stroke-miterlimit="10" stroke-width="35.2"/>
      <path d="M424.5,424s21-208,19.5-357" fill="none" stroke="#090f63" stroke-linecap="round" stroke-miterlimit="10" stroke-width="35.2"/>
      <path d="M288,288s72-72,200-72" fill="none" stroke="#090f63" stroke-linecap="round" stroke-miterlimit="10" stroke-width="35.2"/>
    </g>
  </g>
</svg>
