<svg xmlns="http://www.w3.org/2000/svg" width="100" height="300" viewBox="0 0 100 300">
  <defs>
    <style>
      .cls-1 {
        isolation: isolate;
      }

      .cls-2, .cls-4 {
        fill: #fff;
      }

      .cls-2, .cls-3, .cls-4 {
        stroke: #000;
      }

      .cls-10, .cls-11, .cls-2, .cls-3, .cls-4, .cls-5, .cls-6, .cls-8, .cls-9 {
        stroke-miterlimit: 10;
      }

      .cls-2, .cls-5, .cls-6 {
        stroke-width: 1.17px;
      }

      .cls-10, .cls-11, .cls-3, .cls-5, .cls-6, .cls-8, .cls-9 {
        fill: none;
      }

      .cls-3, .cls-8, .cls-9 {
        stroke-linecap: round;
      }

      .cls-3 {
        stroke-width: 4px;
      }

      .cls-10, .cls-11, .cls-4 {
        stroke-width: 1.06px;
      }

      .cls-10, .cls-5, .cls-9 {
        stroke: #1e90ff;
      }

      .cls-11, .cls-6, .cls-8 {
        stroke: #f7accf;
      }

      .cls-7 {
        mix-blend-mode: overlay;
      }

      .cls-8, .cls-9 {
        stroke-width: 7.46px;
      }
    </style>
  </defs>
  <title>logo-wh-step3</title>
  <g class="cls-1">
    <g id="Layer_1" data-name="Layer 1">
      <g>
        <polyline class="cls-2" points="6.7 138.19 13.72 108.49 30.11 129.56 37.14 107.32 50.02 127.22 64.06 108.49 68.75 130.73 87.48 110.83 93.48 136.15"/>
        <g>
          <path class="cls-3" d="M16,41C15.76,18.12,23.74-4.82,24,25.63S19.91,262,26.94,261.87,31.87,87.26,35.26,87.26c2.46,0-1.26,185.25,6.93,185.25,10.75,0,.8-234.84,4.28-238.69s7-2,7.17,15.14"/>
          <path class="cls-3" d="M60.55,10.63V290"/>
          <path class="cls-3" d="M78.11,275.46c0-103.32,3.52-232.62,3.52-255.73"/>
          <path class="cls-3" d="M53.53,107.25S87.48,95.83,91,95.83"/>
        </g>
        <path class="cls-2" d="M76.36,145.37,74,117.27l-12.3,24L50,117.85,37.14,140.1,26,116.1,23.68,143,4.94,112.59l4.45,66.73c2.59,2.23,19.78,6.31,40.63,6.31s38-4.08,40.62-6.31l4.45-66.73Z"/>
        <ellipse class="cls-2" cx="32.46" cy="165.85" rx="8.2" ry="9.37"/>
        <polygon class="cls-2" points="61.72 151.81 54.7 167.02 60.55 178.73 68.75 167.02 61.72 151.81"/>
        <polygon class="cls-2" points="7.87 143.61 5.53 143.61 6.58 168.19 9.04 168.19 14.89 158.83 7.87 143.61"/>
        <circle class="cls-2" cx="32.46" cy="165.85" r="4.68"/>
        <path class="cls-2" d="M91.2,165.8c-4.5-.46-7.72-5-7.19-10.15s4.61-8.94,9.11-8.48l1.38,0v4.68l-1.86,0a4.68,4.68,0,1,0-1,9.32l2.82,0-1.17,4.68Z"/>
        <line class="cls-2" x1="38.7" y1="159.61" x2="35.67" y2="162.34"/>
        <line class="cls-4" x1="7.47" y1="150.05" x2="8.57" y2="163.61"/>
        <line class="cls-4" x1="87.87" y1="158.05" x2="85.14" y2="161.17"/>
      </g>
      <polyline class="cls-5" points="3.7 138.19 10.72 108.49 27.11 129.56 34.14 107.32 47.02 127.22 61.06 108.49 65.75 130.73 84.48 110.83 90.48 136.15"/>
      <polyline class="cls-6" points="9.7 138.19 16.72 108.49 33.11 129.56 40.14 107.32 53.02 127.22 67.06 108.49 71.75 130.73 90.48 110.83 95.48 136.15"/>
      <g>
        <g class="cls-7">
          <path class="cls-8" d="M18,41C17.76,18.12,25.74-4.82,26,25.63S21.91,262,28.94,261.87,33.87,87.26,37.26,87.26c2.46,0-1.26,185.25,6.93,185.25,10.75,0,.8-234.84,4.28-238.69s7-2,7.17,15.14"/>
          <path class="cls-8" d="M62.55,10.63V290"/>
          <path class="cls-8" d="M80.11,275.46c0-103.32,3.52-232.62,3.52-255.73"/>
          <path class="cls-8" d="M55.53,107.25S89.48,95.83,93,95.83"/>
        </g>
        <g class="cls-7">
          <path class="cls-9" d="M8,41C7.76,18.12,15.74-4.82,16,25.63S11.91,262,18.94,261.87,23.87,87.26,27.26,87.26c2.46,0-1.26,185.25,6.93,185.25,10.75,0,.8-234.84,4.28-238.69s7-2,7.17,15.14"/>
          <path class="cls-9" d="M52.55,10.63V290"/>
          <path class="cls-9" d="M70.11,275.46c0-103.32,3.52-232.62,3.52-255.73"/>
          <path class="cls-9" d="M45.53,107.25S79.48,95.83,83,95.83"/>
        </g>
      </g>
      <g>
        <g class="cls-7">
          <path class="cls-8" d="M12,41C11.76,18.12,19.74-4.82,20,25.63S15.91,262,22.94,261.87,27.87,87.26,31.26,87.26c2.46,0-1.26,185.25,6.93,185.25,10.75,0,.8-234.84,4.28-238.69s7-2,7.17,15.14"/>
          <path class="cls-8" d="M56.55,10.63V290"/>
          <path class="cls-8" d="M74.11,275.46c0-103.32,3.52-232.62,3.52-255.73"/>
          <path class="cls-8" d="M49.53,107.25S83.48,95.83,87,95.83"/>
        </g>
        <g class="cls-7">
          <path class="cls-9" d="M8,41C7.76,18.12,15.74-4.82,16,25.63S11.91,262,18.94,261.87,23.87,87.26,27.26,87.26c2.46,0-1.26,185.25,6.93,185.25,10.75,0,.8-234.84,4.28-238.69s7-2,7.17,15.14"/>
          <path class="cls-9" d="M52.55,10.63V290"/>
          <path class="cls-9" d="M70.11,275.46c0-103.32,3.52-232.62,3.52-255.73"/>
          <path class="cls-9" d="M45.53,107.25S79.48,95.83,83,95.83"/>
        </g>
      </g>
      <g>
        <path class="cls-5" d="M73.36,145.37,71,117.27l-12.3,24L47,117.85,34.14,140.1,23,116.1,20.68,143,1.94,112.59l4.45,66.73C9,181.55,26.17,185.63,47,185.63s38-4.08,40.62-6.31l4.45-66.73Z"/>
        <ellipse class="cls-5" cx="29.46" cy="165.85" rx="8.2" ry="9.37"/>
        <polygon class="cls-5" points="58.72 151.81 51.7 167.02 57.55 178.73 65.75 167.02 58.72 151.81"/>
        <polygon class="cls-5" points="4.87 143.61 2.53 143.61 3.58 168.19 6.04 168.19 11.89 158.83 4.87 143.61"/>
        <circle class="cls-5" cx="29.46" cy="165.85" r="4.68"/>
        <path class="cls-5" d="M88.2,165.8c-4.5-.46-7.72-5-7.19-10.15s4.61-8.94,9.11-8.48l1.38,0v4.68l-1.86,0a4.68,4.68,0,1,0-1,9.32l2.82,0-1.17,4.68Z"/>
        <line class="cls-5" x1="35.7" y1="159.61" x2="32.67" y2="162.34"/>
        <line class="cls-10" x1="4.47" y1="150.05" x2="5.57" y2="163.61"/>
        <line class="cls-10" x1="84.87" y1="158.05" x2="82.14" y2="161.17"/>
      </g>
      <g>
        <path class="cls-6" d="M78.36,145.37,76,117.27l-12.3,24L52,117.85,39.14,140.1,28,116.1,25.68,143,6.94,112.59l4.45,66.73c2.59,2.23,19.78,6.31,40.63,6.31s38-4.08,40.62-6.31l4.45-66.73Z"/>
        <ellipse class="cls-6" cx="34.46" cy="165.85" rx="8.2" ry="9.37"/>
        <polygon class="cls-6" points="63.72 151.81 56.7 167.02 62.55 178.73 70.75 167.02 63.72 151.81"/>
        <polygon class="cls-6" points="9.87 143.61 7.53 143.61 8.58 168.19 11.04 168.19 16.89 158.83 9.87 143.61"/>
        <circle class="cls-6" cx="34.46" cy="165.85" r="4.68"/>
        <path class="cls-6" d="M93.2,165.8c-4.5-.46-7.72-5-7.19-10.15s4.61-8.94,9.11-8.48l1.38,0v4.68l-1.86,0a4.68,4.68,0,1,0-1,9.32l2.82,0-1.17,4.68Z"/>
        <line class="cls-6" x1="40.7" y1="159.61" x2="37.67" y2="162.34"/>
        <line class="cls-11" x1="9.47" y1="150.05" x2="10.57" y2="163.61"/>
        <line class="cls-11" x1="89.87" y1="158.05" x2="87.14" y2="161.17"/>
      </g>
    </g>
  </g>
</svg>
