<svg xmlns="http://www.w3.org/2000/svg" xmlns:xlink="http://www.w3.org/1999/xlink" width="375" height="400" viewBox="0 0 375 400">
  <defs>
    <mask id="mask" x="73.31" y="118.12" width="60.99" height="64.82" maskUnits="userSpaceOnUse">
      <rect x="73.31" y="118.12" width="60.99" height="64.82" style="fill: #fff"/>
      <path d="M117.38,154.23s-17.81,2.83-18.94,3.83,1.13,3.84,1.13,3.84l16.37-3.78Z"/>
      <line x1="99.57" y1="161.9" x2="115.94" y2="158.12"/>
    </mask>
  </defs>
  <title>profile</title>
  <g style="isolation: isolate">
    <g id="Layer_1" data-name="Layer 1">
      <g>
        <path d="M238.4,245.4s19.16,5.34,28,12.17,33.46,20.89,35.58,21.75,11.44,7.24,12.7,8.1,13.56,6.82,16.53,13.22,14.82,11.09,15.67,12.79,10.16,11.94,14.82,19.62-.85,4.26,4.66,7.67,9.32,9,8.47,11.09-25,34.11-41.08,33.26-33-1.7-58-4.69-15.46-3.84-38.23-3.84-84.39,18.77-93.29,18.77c-6.57,0-58.66-34.54-71.79-35s-28.38-2.13-32.62,0-8-5.54-11-6.82S3,348,.45,351.38s6.36-18.76,7.63-21.32,5.5-3.84,5.5-7.67,1.7-5.55,3.39-8.53,3.81-13.22,9.75-16.63,16.93-11.52,17.36-14.08,8.47-8.95,13.55-11.51,19.49-8.53,28-12.36,34.11-2.56,34.11-2.56l73.67-13.22Z" style="fill: #df73ac"/>
        <g style="opacity: 0.6000000000000001;mix-blend-mode: multiply">
          <path d="M161,348.4c9.76-7.68,16.57-20.9,16.57-20.9a11.12,11.12,0,0,1-.9-3.48,21.8,21.8,0,0,0,2.17,4.76c.95,1.56,2.9,4.7,2.9,4.7,4.16,6-6.78,11.93-16,14.92s-19.05,18.76-19.05,18.76A52.14,52.14,0,0,1,161,348.4Z" style="fill: #df73ac"/>
        </g>
        <g>
          <g style="mix-blend-mode: multiply">
            <path d="M236,264.82s5.93,3.83,6.78,4.48,1.39-.65,3.87.85,1,2.77,5.22,4.26,1.92.86,6.58,1.07,3.39,1.92,6.14,2.35,7.84,5.11,7.84,7-3.18,5.86,2.76,8.05-1.49,2.22-1.49,2.22l-4.24-4.51s1.28-3.2.43-5.12-3-5.29-3.81-5.53-1.91-1.08-3.18-1.29a17.59,17.59,0,0,1-3.18-1.07,8.92,8.92,0,0,0-3-.43c-.83.22-.83-.21-2.11,0s-3.17-.85-4.44-1.27a4,4,0,0,1-2.29-1.71,11.66,11.66,0,0,1-1.25-2.13s-1.12-.85-2-.64-.77,0-1.91-.21-.22-.65-2-.86-4.77-.85-4.77-.85Z" style="fill: #875367"/>
          </g>
          <g style="mix-blend-mode: multiply">
            <path d="M47.17,282.52c.88-.73,1.61-.59,3.23-1.47s2.35-2.07,3.81-2.81,2.06-.74,3.23-2.07a6.23,6.23,0,0,1,1.77-1.55,21.09,21.09,0,0,1,3.23-1.85s2,.3,2.64.3,1.32,1,2.5,1.55,4.4,2.59,4.4,2.59,7.77-1.34,8.8-1.48,4.7-1.48,5.29-1.48S96.93,272,96.93,272s-2.79,2.22-3.58,2.22-3.77.44-4.49.44-1.76.59-2.65.59-1.76.59-2.78.74a6,6,0,0,0-2.21,1s-3.81.29-4.25.44a38.7,38.7,0,0,0-3.67,1.7c-.59.37-2.5-1.26-2.5-1.26a4.77,4.77,0,0,1-1.91-.88c-.58-.59-1.46-1.33-2.52-2.22s-2.32-.59-3.2-.74a1.06,1.06,0,0,0-1.18.59s-1.61,1.33-2.05,1.63-1.47,1.18-2,1.48a21.56,21.56,0,0,0-3.09,2.06c-.43.45-6.16,4.44-6.16,4.44l-4.86-.43h0a2.31,2.31,0,0,0,.3-.72S46.29,283.27,47.17,282.52Z" style="fill: #875367"/>
          </g>
        </g>
        <path d="M230.45,159.9s-3,34-3,58.75c0,.54,3-2.23,1.34,24,0,0-8,25.3-17.37,35.82-7.21,8.09-21.6,23.72-29.64,32.76s-4.17,16.28-4.17,16.28-6.81,13.22-16.57,20.9a52.14,52.14,0,0,0-14.34,18.76s-11.38-17.06-12.29-24.73,2-17.91-2.43-18.77-24-66.52-24-66.52l-.72-71.64,78.22-17.14Z" style="fill: #dba194"/>
        <path d="M116.25,144.1a9.93,9.93,0,0,1-1.69,10.16c-3,.49-8.28,1.4-12,2.19a9.76,9.76,0,0,1-5.09-7.7c3.32-3.21,14-4.31,18.79-4.65m.27-.45c-5.44.37-16.24,1.51-19.5,4.94a10.28,10.28,0,0,0,5.47,8.32c3.73-.8,9.11-1.73,12.28-2.26a10.2,10.2,0,0,0,2.61-6.85,10.41,10.41,0,0,0-.86-4.15Z"/>
        <g>
          <path d="M181.74,311.22c-8.05,9-4.17,16.28-4.17,16.28s-6.81,13.22-16.57,20.9a52.14,52.14,0,0,0-14.34,18.76s-11.38-17.06-12.29-24.73,2-17.91-2.43-18.77c-2.36-.45-9-19.35-14.76-36.89l2.52-6.17,97-57.5s-.07.44-.19,1.23c-1,6.44-5.69,36.26-7.2,43.47-1.7,8.11,12.7-14.42,18.42-22.35-2.79,7.25-10.5,26.49-16.31,33C204.19,286.56,189.78,302.18,181.74,311.22Z" style="fill: #dba194"/>
          <g style="opacity: 0.2;mix-blend-mode: multiply">
            <path d="M181.74,311.22c-8.05,9-4.17,16.28-4.17,16.28s-6.81,13.22-16.57,20.9a52.14,52.14,0,0,0-14.34,18.76s-11.38-17.06-12.29-24.73,2-17.91-2.43-18.77c-1.14-.21-3.3-4.76-5.87-11.39-2.74-7-5.94-16.46-8.89-25.5l2.52-6.17,97-57.5s-.07.44-.19,1.23c-1,6.44-5.69,36.26-7.2,43.47-1.7,8.11,12.7-14.42,18.42-22.35-2.79,7.25-10.5,26.49-16.31,33C204.19,286.56,189.78,302.18,181.74,311.22Z" style="fill: #dba194"/>
          </g>
          <path d="M146.66,367.16s-11.38-17.06-12.29-24.73,2-17.91-2.43-18.77c0,0-12-6-15.64-9.8s-11.43-20.95-11.43-20.95-3.94,1.37-2.93,6.79,3.35,16.86,2.5,17.64l-.85.78s5.29-4.05,3.6-5.54,4.45,5.75,4,10.66,3.89,1.49,6,1.71,12.88,3.31,12.88,3.31,1.28,15.23,3,21.84,4.23,14.5,4.23,14.5l2.12,13,.22,21.11L151.24,400V377.18l-4.58-10" style="fill: #332421"/>
          <path d="M146.66,367.16s9.81-15.78,19.05-18.76,20.19-9,16-14.92c0,0-2-3.14-2.9-4.7-2.19-3.57-5.15-8.52,2.9-17.56s22.45-24.66,29.64-32.76c5.81-6.52,15.15-27.07,17.37-35.82,0,0,1.8-18.86-1.06-24,0,0,16.42,25.81,16.95,32.74-.64,8.21-1.91,22.06-8.26,31.34s-23.09,26.76-28.28,35.82-9,14.5-9.84,14.6-1.27-.1-1.38-.53.29-4.16-1.23-5.75c0,0-2.37-4.06-2.16-6.08s-1.16,5-8.36,14.71c0,0-5.09,8.53-14.62,11.62,0,0-5.18,1.57-12.49,7.14A46.75,46.75,0,0,0,146.66,367.16Z" style="fill: #332421"/>
          <path d="M219.85,170l8.9,8.42s.14.45.38,1.25c-.63,10.46-1.3,23.48-1.58,35-2.84-11.24-6.25-29.69-6.25-29.69Z" style="fill: #dba194"/>
          <g style="opacity: 0.2;mix-blend-mode: multiply">
            <path d="M219.85,170l8.9,8.42s.14.45.38,1.25c-.63,10.46-1.3,23.48-1.58,35-2.84-11.24-6.25-29.69-6.25-29.69Z" style="fill: #dba194"/>
          </g>
        </g>
        <g style="mix-blend-mode: multiply">
          <path d="M193.49,320.44s1.44-13.83,0-15.39-1.3-2.14-1.44-1.57-2.46,6.95-4.55,7.74-4.07,2.35-3.36,2.35,6.21-1,6.63-.42a3.85,3.85,0,0,1,1.13,2.13c0,.85.43-1.85,0,.85s-.22,8.77-1.52,11.09h0l3.11-6.78" style="fill: #875367"/>
        </g>
        <g style="mix-blend-mode: multiply">
          <path d="M197.48,322.65c-.86-1.79-.07-4.38,1.2-5.1s3.23.51,3.81,1.95a4.19,4.19,0,0,1-1,4.1A3.08,3.08,0,0,1,197.48,322.65Z" style="fill: #875367"/>
        </g>
        <g style="mix-blend-mode: multiply">
          <path d="M202.49,323.24s2.54-6.11-2.54-7.48" style="fill: #875367"/>
        </g>
        <path d="M94.47,186.91c5.93,38,26.26,69.93,58.87,73.77s69-20.05,68.62-37.1a125.46,125.46,0,0,1,1.25-20.84,1.5,1.5,0,0,0,.07-.32c.4-3.1,1-3.3,2-.89a2.67,2.67,0,0,0,.14.36s0,.07,0,.11v0c1.05,2.37,3.21,4.37,7.52,4.54,11,.42,12.29-6.4,11.44-13.22s.85-6,2.11-7.25,8.47-15.35,8-23-.42-16.63-1.69-20.47-3.39-8.1-7.62-7.24-3-.86-10.59,10.23S230,113.13,230,113.13s-10.37-43.07-18.64-55c-9.74-14.07-59.73-1.71-59.73-1.71L111.41,75.18S94.89,96.93,96.16,111.42l1.27,14.5s-3,9-3,13.65,2.54,13.22,1.69,15.78S91.49,167.87,94.47,186.91Zm135.2,10.29c0-3.28,2-6,4.57-6.69,2.62.68,4.58,3.41,4.58,6.69s-2,6-4.58,6.69C231.62,203.21,229.67,200.47,229.67,197.2Z" style="fill: #dba194"/>
        <g style="opacity: 0.12;mix-blend-mode: screen">
          <path d="M207.57,78c2.22,1.56,5.51,10.23,2.55,14.5s-5.93,7.67-4.66,13.64,6.91,14.93,5.36,17.48,5.22,5.71,5.65,8.61-5.93,5.9-3.81,11.65,4.69,8,3.83,16c-.59,5.51-1.86,43.63-15.38,47.25-8.92,2.4-15.22-4-16.83-5.57-17.58-17-33.47-16.53-17.37-25.28s32.62.21,33.47-14.08,4.23-19.36.84-25.78-7.66-9-7.85-14.95,2.06,1.71,1.78-11.51,1.63-11.94,2.58-19.19,3.83-9.35-2.58-14.5C195.15,76.33,200.25,72.87,207.57,78Z" style="fill: #dba194"/>
        </g>
        <g style="opacity: 0.2;mix-blend-mode: multiply">
          <path d="M96.16,155.35c.85-2.56-1.69-11.09-1.69-15.78s3-13.65,3-13.65l-1.27-14.5c-1.27-14.49,15.25-36.24,15.25-36.24L145,59.51c21.91-.22,40.65.72,42.45,4.46,4.52,9.37,5.22,13.07-13.9,25.3s-17.81,13.07-6.16,13.36,6.8,6.25-19.4,12.79c-12.46,3.11,29.39.57,13,10.38s-24.16,3.19-26.63,18.72-4.16,22.92-3.6,27.76-.77,15.05,1.17,14.92,2.33,7-3.52,7.12c-2.55,1.31-.58,6.27-.58,6.27a11.55,11.55,0,0,1-7.52,2.61c-2.19-.11-4.34-.53-4.23,1-.57,8.76,8.57,13.6,8.57,13.6s22,15.35,18.72,20.18c-2.14,3.15-12.92,5.81-21.7,7.45-14.29-13.66-23.53-34.93-27.21-58.49C91.49,167.87,95.31,157.91,96.16,155.35Z" style="fill: #dba194"/>
        </g>
        <g style="opacity: 0.30000000000000004;mix-blend-mode: screen">
          <path d="M96.16,155.35c.85-2.56-1.69-11.09-1.69-15.78s3-13.65,3-13.65l-1.27-14.5c-1.27-14.49,15.25-36.24,15.25-36.24l17-7.94c-3.4,7.65-11,17.62-11,17.62s0-1.74-8,2.56-6,16.63-6,17.91-.42,13.22.85,17.06,6.76,2.56,3,5.54-10.2,3.5-10.2,3.5a14.09,14.09,0,0,0,.34,12.62c2.27,4.47.65,10.41,2,13.62,3.92-1.2,18-3.44,18-3.44l-13.2,5.69c.41,0,.84-.07,1.32-.15,0,0,12.36.57,3.85,3.55s-16,3.5-13.23,19,5.17,26,10,34c1.3,2.13.89,4.48-.5,6.77a124,124,0,0,1-11.17-36.19C91.49,167.87,95.31,157.91,96.16,155.35Z" style="fill: #dba194"/>
        </g>
        <path d="M105.92,217.91l.85-6s4.23.43,5.08-.85a27.52,27.52,0,0,0,1.27,5.11c.85,2.14,3.39,0,3.39-1.27s3,3.83,3,3.83,1.7,4.69,3,5.55a17.42,17.42,0,0,0,5.08,2.55c3.39,1.28,0,0,0-1.27s3-4.27,5.51-4.27,6.35,0,8.89,2.13,0,0,1.7.43,0,0,3.81,1.71,0,0,3.39-1.28,0,0,1.27-1.71,2.54.43,2.54.43l1.69.42s6.78,3.84,6.78,2.14a16.45,16.45,0,0,0-.42-3.42l6.77,3-2.54-10.23,7.63,1.7,1.27-6.39c1.27-6.4,0,0,1.69,1.27s4.24,5.12,7.63,7.68,7.62,10.23,7.62,8.1A12.84,12.84,0,0,1,194,222.6l2.12.85c2.12.86,10.16,5.12,10.59,1.71s-.85-2.13-.85-2.13-1.69-6.4-1.69-8.1,5.93,3.41,5.93,3.41,5.51-4.27.84-12.37c0,0,5.08-.86,5.08-4.27s0,0,.43-2.13l-.84-8.1,5.5.85s-3.81-9.8-3.81-12.37v-3c0-3,0,0,2.11-2.56s0-2.13.43-6.4,0,0,.43-3.41,0,0,0-3.83,0,0,.41-2.56,0,0,0-1.71a8.61,8.61,0,0,0-.41-3.41,39.29,39.29,0,0,0-2.55-4.69l3.81-3.41L219,141.58c-2.54-3.41,1.28-3.84,1.28-3.84a12.24,12.24,0,0,1,0-4.27c.41-2.13,0,0,2.53-.85s.43-2.56-1.27-4.26-6.35-3-6.35-3,3.39-4.26.84-6.4a34.12,34.12,0,0,0-3.38-2.55c-3.39-2.56-.85-8.11-.85-8.11s3.39-3,2.12-6.82,3-4.26,3-6.39-1.27-3.84-4.24-14.08,3.81-1.28.42-6.82-2.54-3.41-2.54-3.41-5.93,0-12.71-.43,0,0-2.54-4.69-3,0-11-.43-3.39-.43-5.08-2.55-8.9-2.14-18.64,1.28-8.47,4.69-16.1,5.11-4.23-20-3.81-15.35,8.9,13.22-11.86,20-16.51.43-16.51.43-17.37-8.53-11-36.25c4.24-12.36,13.13-19.19,4.24-18.76,0,0,9.31-.43,9.74,7.24,9.74.86,6.35-19.18.42-12.36,0,0,7.63-13.22,21.6-1.28,0,0,3,1.28,1.27,3.84C137,19,145.2.6,144.89,0c0,0,12.7,7.25,9.32,12.79s14.4-3.41,11.43-8.95c0,0,14.4,4.69,9.32,13.22,0,0,11-3.42,22.45-.86s11.44-3.41,11.44-3.41-5.51,10.66-1.7,11.94,4.66-3.83,11.44,2.56,11.86,14.07,9.32,21.32c0,0,5.92,6.4,8,.43,0,0-6.77,2.13-2.12,8.53s5.94,5.12,6.78,7.67-1.27,2.14-1.27,2.14c-5.08-2.57-5.08,3.41-5.08,3.41,5.51,1.28,6.77.85,6.77.85l-.84,2.56c-.85,2.56,0,13.22,0,13.22-.42-3.41,4.24-3.84,4.24-3.84.42,6.82,3.81,25.16,3.38,33.69s-12.28,27.29-14,27.72-9.31,27.29-10.16,31.13-2.54,26-2.54,26,5.08,25.59,1.27,38.81-6.77-13.65-28.38,33.69-82.59,40.08-91.49,26,2.54,1.28,1.7-15.78-7.63,3.84-7.63,3.84c-7.2-8.53-2.54-22.6-2.54-22.6l-2.54,11.51c-.42-6.39-1.69-2.13,2.54-22.17s-2.54-10.66-2.54-10.66c4.66-17.49,17.78-32.41,17.78-32.41" style="fill: #292412"/>
        <path d="M137.77,192.78s27.61-4.8,34.77,2.06,11.93,21.62,22.16,13,6.13-9.59,2-11.66c0,0,11.81.68,4.37,11s-17.88,7.28-24.25,3.3-28.86-9.25-36.36-7.82-7.95-2.34-8.52-4.06S137.77,192.78,137.77,192.78Z" style="fill: #332421"/>
        <path d="M122.43,142.33c.32,1,.61,1.93.9,2.9s.55,1.94.75,2.93l.15.74.11.75c.09.49.13,1,.19,1.5s.06,1,.08,1.5,0,1,0,1.51-.07,1-.14,1.5l-.1.75-.13.74c-.08.5-.19,1-.31,1.47s-.23,1-.36,1.47-.27,1-.41,1.45-.29,1-.45,1.45l-1,2.87c-.32,1-.63,1.92-.91,2.9-.14.49-.29,1-.42,1.46L120,171.7c-.13.5-.2,1-.31,1.5s-.15,1-.2,1.51c0,.25,0,.51-.08.75a4.18,4.18,0,0,1-.15.72,10.6,10.6,0,0,1-.47,1.41,19.62,19.62,0,0,0-1.58,5.89,8,8,0,0,0,.35,3.07,6.25,6.25,0,0,0,.68,1.4,6.64,6.64,0,0,0,1,1.17l0,0a15.34,15.34,0,0,0,1.17,1.49,16.69,16.69,0,0,0,1.33,1.33,11.14,11.14,0,0,0,3.15,2,7.4,7.4,0,0,0,.91.29,2.42,2.42,0,0,0,.45.1l.47.08a7.31,7.31,0,0,0,.94,0,5.75,5.75,0,0,0,.93-.1,7.09,7.09,0,0,0,.91-.22,9.29,9.29,0,0,0,.87-.35,6.48,6.48,0,0,0,.81-.46c.27-.16.51-.35.77-.53-.26.17-.51.36-.79.51a7,7,0,0,1-.82.42,6.44,6.44,0,0,1-1.77.53,5.27,5.27,0,0,1-1.83,0,3,3,0,0,1-.45-.08,3.28,3.28,0,0,1-.45-.11,8.93,8.93,0,0,1-.87-.3c-.28-.13-.55-.26-.82-.41a7.91,7.91,0,0,1-.79-.48c-.26-.17-.5-.35-.75-.55s-.47-.38-.7-.59a18,18,0,0,1-1.29-1.33,15.83,15.83,0,0,1-1.12-1.47h0v0a6.34,6.34,0,0,1-.94-1.13,6.24,6.24,0,0,1-.63-1.33,7.58,7.58,0,0,1-.3-2.93,19.28,19.28,0,0,1,1.57-5.76,10.91,10.91,0,0,0,.51-1.46,5.07,5.07,0,0,0,.14-.76c0-.26.06-.51.09-.76a26.89,26.89,0,0,1,.5-3l.36-1.47c.13-.49.28-1,.41-1.45.27-1,.58-1.94.9-2.9l.93-2.88c.17-.48.31-1,.45-1.45s.29-1,.42-1.47.24-1,.34-1.48.21-1,.29-1.5l.12-.75.09-.76c.07-.5.09-1,.12-1.52s0-1,0-1.52,0-1-.1-1.53a15,15,0,0,0-.21-1.5l-.13-.75-.17-.74c-.23-1-.52-2-.82-2.93S122.77,143.28,122.43,142.33Z"/>
        <path d="M229.18,196.65c0,4.39,3,7.95,6.77,7.95s6.78-3.56,6.78-7.95-3-8-6.78-8S229.18,192.26,229.18,196.65Zm.92,0c0-3.79,2.62-6.86,5.85-6.86s5.85,3.07,5.85,6.86-2.62,6.85-5.85,6.85S230.1,200.43,230.1,196.65Z" style="fill: #161616"/>
        <path d="M239.26,196.65c0-3.28-2-6-4.58-6.69a4.92,4.92,0,0,1,1.27-.17c3.23,0,5.85,3.07,5.85,6.86s-2.62,6.85-5.85,6.85a5.39,5.39,0,0,1-1.27-.16C237.3,202.66,239.26,199.92,239.26,196.65Z" style="fill: #2b2b2b"/>
        <path d="M172.54,194.84c2.31,2.55,2.42,1.75,3.27,2.28a3.62,3.62,0,0,1-1.63,0" style="fill: #332421"/>
        <path d="M173.56,195.88c1.66,1.4,1.87,2.36,3,3s-2.37-.59-2.37-.59" style="fill: #332421"/>
        <path d="M176.55,198.83c1.11.58-2.37-.59-2.37-.59" style="fill: #251512"/>
        <path d="M175.81,197.12a3.62,3.62,0,0,1-1.63,0" style="fill: #251512"/>
        <path d="M178.88,157.78l.21-.05a4.54,4.54,0,0,1,.61-.09,6,6,0,0,1,1,0c.37,0,.78.08,1.23.16s.93.19,1.43.33,1,.31,1.58.48c1.09.35,2.23.77,3.37,1.21l3.39,1.22c1.09.37,2.13.67,3,.89a12.14,12.14,0,0,0,1.24.24c.37.05.7.08,1,.1a4.48,4.48,0,0,0,.62,0h.23l-.23,0c-.14,0-.34,0-.61-.06s-.58-.09-.94-.18-.77-.19-1.21-.31c-.88-.25-1.88-.62-3-1s-2.21-.83-3.36-1.26-2.31-.83-3.42-1.17a20,20,0,0,0-3.08-.69,9.58,9.58,0,0,0-1.26-.08,8.06,8.06,0,0,0-1,.08,3.94,3.94,0,0,0-.61.16Z" style="fill: #8b737d"/>
        <path d="M134.37,179.46l1.15-.43,1.31-.5c.5-.2,1.08-.39,1.69-.62l1-.31,1-.29c.37-.07.74-.16,1.12-.22s.76-.13,1.16-.14l.58,0a5.88,5.88,0,0,1,.6,0,7.69,7.69,0,0,1,1.17.18,2.9,2.9,0,0,1,.57.18,3.9,3.9,0,0,1,.57.21l.53.29.26.14.25.19.49.36c.16.12.3.29.45.42l.44.43.39.49.39.48c.11.14.24.35.36.52.25.35.49.7.69,1,.09.17.2.34.3.51s.18.35.28.52a9.27,9.27,0,0,1,.47,1,5.24,5.24,0,0,1,.41,1.93,2.16,2.16,0,0,1-.57,1.46,2.73,2.73,0,0,1-1.09.71,3,3,0,0,1-.48.16,1.55,1.55,0,0,1-.37.08l-.32.06h.32a2.52,2.52,0,0,0,.39,0,2.76,2.76,0,0,0,.53-.07,2.85,2.85,0,0,0,1.35-.59,2.67,2.67,0,0,0,1-1.75,5.43,5.43,0,0,0-.24-2.31,10.14,10.14,0,0,0-.43-1.16c-.09-.19-.16-.39-.26-.58s-.2-.38-.31-.57a12.15,12.15,0,0,0-.65-1.12c-.12-.19-.21-.36-.35-.57s-.29-.36-.43-.55l-.43-.55-.49-.5a5.9,5.9,0,0,0-.51-.49l-.58-.44-.29-.21a2.48,2.48,0,0,0-.32-.17l-.65-.34a5.35,5.35,0,0,0-.67-.24,4.18,4.18,0,0,0-.69-.2l-.7-.12a5.34,5.34,0,0,0-.69,0c-.23,0-.46,0-.68,0l-.67.06a4.49,4.49,0,0,0-.64.1l-.62.12-1.17.35c-.36.14-.73.26-1.06.4l-1,.44c-.6.29-1.15.58-1.62.85s-.89.51-1.23.71C134.74,179.21,134.37,179.46,134.37,179.46Z"/>
        <g>
          <path d="M133.1,190.69c1.06-1,8.05-3.7,11.36-3.48s2.26.71.85,1.13" style="fill: #dba194"/>
          <path d="M133.1,190.69a3.27,3.27,0,0,1,.56-.39,14.07,14.07,0,0,1,1.63-.75,17.54,17.54,0,0,1,2.43-.76c.9-.21,1.87-.41,2.83-.57.49-.07,1-.14,1.44-.17s.94-.06,1.38-.07.81,0,1.22,0l1.12.1.43.05c.05,0,.09,0,.05,0a.42.42,0,0,1-.17-.25.55.55,0,0,1,0-.31.43.43,0,0,1,.08-.18c.1-.11.08,0,.06,0l-.1.09-.26.17c-.18.12-.34.16-.4.36s0,.18-.06.25,0,.12,0,.11a.54.54,0,0,0,.07.09,1.77,1.77,0,0,0,.2.17c.16.12.33.07.56,0a2.46,2.46,0,0,0,.4-.09l.26-.1a1,1,0,0,0,.39-.32.71.71,0,0,0,.13-.29.76.76,0,0,0,0-.42A1,1,0,0,0,147,187a2.15,2.15,0,0,0-.41-.22,4.14,4.14,0,0,0-.62-.17,10.08,10.08,0,0,0-1.26-.16c-.2,0-.48,0-.72,0s-.49,0-.74.07a17,17,0,0,0-2.91.8,27.45,27.45,0,0,0-2.74,1.11l-1.23.57-1.09.51c-.68.32-1.23.6-1.6.82A2.93,2.93,0,0,0,133.1,190.69Z"/>
        </g>
        <path d="M125,194.21c-5-1.07-6.43-3.1-13.47,1.8s-13,8.81-19.08,10.91-9.85-.19-11.22-2.48,1.18-3.17,3-1.64c-.51-3.1-5.12-2.38-4.68,1,.36,2.75,5.12,11.33,14.72,9.63,3.27-.58,3.61-1.81,13.16-5.56s17.17-3.45,19.36-3.86,2.93-8.25-1.25-9.49" style="fill: #332421"/>
        <g style="mix-blend-mode: multiply">
          <path d="M117.38,206.87c.24,0,7.05,1.82,8.49,1.87s6.66.75,7.23.8,5.8-.37,6.78-.37,7.71-.06,8.24-.16,5.39-.75,7.73-1,5.08-.42,2.59.22-15.14,1.7-17.05,2.18-4.55.59-5,.86-2,.35-2.55.65,1.41.71-.77,0S131,211,130,210.77a11.11,11.11,0,0,0-2.87-.53,29,29,0,0,1-5-.65,23.63,23.63,0,0,0-2.81-1.17,14.13,14.13,0,0,1-2.28-1.55h.4Z" style="fill: #875367"/>
        </g>
        <path d="M186.82,151.33s0,.11-.1.31a8.11,8.11,0,0,1-.34.78c-.08.17-.18.33-.28.5s-.21.35-.34.53a5,5,0,0,1-.42.52,5.68,5.68,0,0,1-.47.51c-.16.16-.34.31-.51.46l-.54.41-.53.34c-.17.11-.34.19-.49.28s-.3.17-.43.22l-.34.16-.29.15.32-.07a6.08,6.08,0,0,0,.84-.24c.17-.07.36-.13.54-.22l.59-.31.58-.39c.19-.16.38-.32.55-.49s.35-.35.5-.54a4.38,4.38,0,0,0,.4-.59,3.68,3.68,0,0,0,.32-.58,4.85,4.85,0,0,0,.22-.55,4.57,4.57,0,0,0,.2-.86C186.82,151.45,186.82,151.33,186.82,151.33Z" style="fill: #8b737d"/>
        <path d="M185.41,157.55l.32.17.85.43c.72.34,1.68.77,2.65,1.16.5.19,1,.39,1.45.55l.17.07.19,0a2,2,0,0,0,.36.05,5,5,0,0,0,.65,0,7.09,7.09,0,0,0,1.32-.16H193l-.95-.07c-.19,0-.4,0-.6-.1a2.25,2.25,0,0,1-.33-.08l-.15,0-.17-.08-1.42-.6c-1-.39-2-.75-2.72-1l-.91-.28Z" style="fill: #8b737d"/>
        <path d="M145,143.49s-.09.22-.23.59-.33.92-.52,1.58c-.09.34-.19.7-.28,1.09a8.74,8.74,0,0,0-.21,1.23,5.07,5.07,0,0,0,0,.68,1.57,1.57,0,0,0,.19.75l.09.09.05.06.11.13.23.25c.16.17.28.35.42.52.28.34.55.71.83,1.07l.8,1c.52.68,1,1.31,1.44,1.85s.81,1,1.07,1.27c.12.15.25.26.32.34l.11.11-.37-.5-.94-1.37c-.39-.56-.83-1.22-1.33-1.92-.25-.35-.5-.72-.77-1.07s-.54-.73-.84-1.1c-.15-.18-.29-.37-.44-.54s-.3-.31-.44-.47a1.15,1.15,0,0,1-.13-.53,3.2,3.2,0,0,1,0-.62,17.21,17.21,0,0,1,.35-2.3c.15-.66.27-1.23.37-1.61S145,143.49,145,143.49Z" style="fill: #8b737d"/>
        <path d="M142.77,152.09s.19.23.48.54.7.72,1.09,1.12a12.56,12.56,0,0,1,1,1.14,1.6,1.6,0,0,1,.16.23,1.3,1.3,0,0,1,.11.19l.09.18s0-.07,0-.21a.74.74,0,0,0,0-.23,1.31,1.31,0,0,0-.11-.29,2.84,2.84,0,0,0-.38-.66,5.42,5.42,0,0,0-.55-.65c-.21-.2-.43-.4-.64-.57a5.79,5.79,0,0,0-.6-.43A5.17,5.17,0,0,0,142.77,152.09Z" style="fill: #8b737d"/>
        <g id="EYES_2" data-name="EYES 2">
          <g>
            <path d="M156.85,147.14a10.91,10.91,0,1,0,10.91-11A10.94,10.94,0,0,0,156.85,147.14Z" style="fill: #fff"/>
            <path d="M156.63,147.14a11.13,11.13,0,1,1,11.13,11.19A11.17,11.17,0,0,1,156.63,147.14Zm.43,0a10.7,10.7,0,1,0,10.7-10.77A10.75,10.75,0,0,0,157.06,147.14Z"/>
          </g>
          <g style="mask: url(#mask)">
            <g>
              <path d="M97,147.8a10.2,10.2,0,1,0,10.2-10.27A10.23,10.23,0,0,0,97,147.8Z" style="fill: #fff"/>
              <path d="M96.78,147.8a10.41,10.41,0,1,1,10.41,10.47A10.46,10.46,0,0,1,96.78,147.8Zm.42,0a10,10,0,1,0,10-10.06A10,10,0,0,0,97.2,147.8Z"/>
            </g>
          </g>
          <g>
            <g style="opacity: 0.30000000000000004">
              <path d="M115.42,145.78a2.12,2.12,0,0,0,0-.37,4.79,4.79,0,0,0-.13-1,4.55,4.55,0,0,0-.19-.64,5.66,5.66,0,0,0-.29-.69,5.55,5.55,0,0,0-.41-.7c-.14-.23-.33-.44-.49-.66l-.57-.59-.62-.51-.62-.41c-.2-.13-.41-.22-.58-.32a4.9,4.9,0,0,0-.51-.22l-.4-.15-.36-.12.32.19a3.62,3.62,0,0,0,.37.22c.14.08.28.19.46.3l.53.36.56.44.56.51.54.58c.16.21.34.4.48.62s.29.42.41.64a6.35,6.35,0,0,1,.33.63c.09.21.18.41.24.59a5.8,5.8,0,0,1,.29.93C115.4,145.65,115.42,145.78,115.42,145.78Z" style="fill: #8b737d"/>
            </g>
            <g style="opacity: 0.30000000000000004">
              <path d="M100.56,142.06l-.21.28c-.13.17-.32.43-.53.75a15.86,15.86,0,0,0-1.29,2.46,9.83,9.83,0,0,0-.45,1.43,5.31,5.31,0,0,0-.16,1.31,4.08,4.08,0,0,0,.06.53,3.3,3.3,0,0,0,.13.38c.1.21.19.3.18.31l0-.09s0-.14-.07-.24a2.74,2.74,0,0,1,0-.88,10,10,0,0,1,.76-2.59c.37-.92.78-1.82,1.1-2.51Z" style="fill: #8b737d"/>
            </g>
            <g style="opacity: 0.30000000000000004">
              <path d="M98.69,151.8a6.35,6.35,0,0,0,.43.83c.14.24.32.51.52.8s.45.57.69.85a8.12,8.12,0,0,0,.8.76,2.86,2.86,0,0,0,.41.3,1.8,1.8,0,0,0,.4.23,1.38,1.38,0,0,0,.36.15,1.25,1.25,0,0,0,.29.06l.26,0-.24-.1a1.47,1.47,0,0,1-.24-.13,1.88,1.88,0,0,1-.31-.21,6.83,6.83,0,0,1-.69-.6c-.12-.11-.23-.25-.36-.37s-.24-.27-.37-.4l-.71-.8-.62-.71C99,152.07,98.69,151.8,98.69,151.8Z" style="fill: #8b737d"/>
            </g>
            <g style="opacity: 0.30000000000000004">
              <path d="M112.8,153.91a2,2,0,0,0,.62,0,2.75,2.75,0,0,0,.62-.13,1.85,1.85,0,0,0,.33-.12,3.65,3.65,0,0,0,.34-.18l.31-.23a2.11,2.11,0,0,0,.25-.27,1.68,1.68,0,0,0,.2-.29,1.78,1.78,0,0,0,.12-.29c0-.09,0-.18.06-.25a1.56,1.56,0,0,0,0-.2v-.17l-.08.15a1.47,1.47,0,0,1-.09.17,1.62,1.62,0,0,1-.13.19,1,1,0,0,1-.16.22c0,.08-.14.14-.2.22s-.16.13-.24.2l-.28.19c-.09.05-.18.12-.28.17s-.2.1-.3.14-.38.17-.54.24C113,153.83,112.8,153.91,112.8,153.91Z" style="fill: #8b737d"/>
            </g>
            <g style="opacity: 0.30000000000000004">
              <path d="M114.71,151.8a3.07,3.07,0,0,0,.45-.52,3.78,3.78,0,0,0,.36-.61,4.6,4.6,0,0,0,.29-.76,3.32,3.32,0,0,0,.12-.82,2.6,2.6,0,0,0-.08-.72,1.4,1.4,0,0,0-.2-.47,1.32,1.32,0,0,0-.09-.17s0,.08,0,.19a3,3,0,0,1,0,.48c0,.1,0,.21,0,.32s0,.22,0,.34,0,.24-.07.36,0,.25-.08.38-.07.25-.11.37l-.12.36-.23.64C114.81,151.55,114.71,151.8,114.71,151.8Z" style="fill: #8b737d"/>
            </g>
            <g style="opacity: 0.30000000000000004">
              <path d="M108.45,139a1.73,1.73,0,0,0-.28,0h-.75c-.31,0-.66,0-1,.08s-.78.11-1.18.18a11.64,11.64,0,0,0-1.17.32,5,5,0,0,0-1,.42,1.72,1.72,0,0,0-.36.23,2.13,2.13,0,0,0-.26.21l-.19.22.24-.15a1.12,1.12,0,0,1,.29-.14c.11-.06.24-.09.37-.15l.47-.14.52-.14.56-.13.59-.13,2.18-.44.72-.16Z" style="fill: #8b737d"/>
            </g>
            <g style="opacity: 0.30000000000000004">
              <path d="M100.07,148.32a1.67,1.67,0,0,0-.36.5,2.29,2.29,0,0,0-.21.61,2.08,2.08,0,0,0,0,.36,2.55,2.55,0,0,0,0,.39,1.54,1.54,0,0,0,.09.37,1.81,1.81,0,0,0,.13.35,2.08,2.08,0,0,0,.19.29.9.9,0,0,0,.19.23,1.61,1.61,0,0,0,.35.29l.14.09-.08-.15-.1-.16a2,2,0,0,1-.11-.21,1.92,1.92,0,0,1-.12-.25,2.33,2.33,0,0,1-.11-.28,2.63,2.63,0,0,1-.15-.63,3.43,3.43,0,0,1,0-.64c0-.11,0-.21,0-.31a2.51,2.51,0,0,1,0-.27A5.24,5.24,0,0,1,100.07,148.32Z" style="fill: #8b737d"/>
            </g>
            <g style="opacity: 0.30000000000000004">
              <path d="M104.76,155.18a6.38,6.38,0,0,0,.83.18,6.87,6.87,0,0,0,.87.09c.31,0,.65,0,1,0a8,8,0,0,0,1-.11l.45-.11a2.46,2.46,0,0,0,.41-.13,1.91,1.91,0,0,0,.32-.15,1.53,1.53,0,0,0,.23-.15l.18-.16-.22.08a1.47,1.47,0,0,1-.25.08l-.34.06a5.9,5.9,0,0,1-.83.1l-.48,0-.49,0-1.84.08C105.1,155.14,104.76,155.18,104.76,155.18Z" style="fill: #8b737d"/>
            </g>
            <g style="opacity: 0.30000000000000004">
              <path d="M113.58,143.65l-.15-.26c-.11-.16-.25-.4-.45-.66a7.75,7.75,0,0,0-.75-.85,6.39,6.39,0,0,0-1-.85,5.28,5.28,0,0,0-.55-.37c-.19-.11-.39-.2-.57-.29a5.79,5.79,0,0,0-.57-.21A4.34,4.34,0,0,0,109,140l-.46,0a1.83,1.83,0,0,0-.35,0l-.3,0,.3,0a2.61,2.61,0,0,1,.33.06l.42.11.48.19c.17.07.33.17.51.25l.53.31c.17.11.35.22.52.35s.35.25.5.39l.48.39c.31.26.58.52.82.75s.43.4.56.54Z" style="fill: #8b737d"/>
            </g>
            <g style="opacity: 0.30000000000000004">
              <path d="M103.8,141.19a2.71,2.71,0,0,0-.62.12,3.73,3.73,0,0,0-.6.24,4.31,4.31,0,0,0-.63.39,4.52,4.52,0,0,0-.54.53,2.51,2.51,0,0,0-.2.29,1.83,1.83,0,0,0-.14.28,1.54,1.54,0,0,0-.14.44l0,.17.11-.14.26-.35c.06-.07.13-.13.19-.21a2.44,2.44,0,0,1,.23-.22,2.73,2.73,0,0,1,.25-.23l.27-.22c.37-.29.77-.55,1.08-.75Z" style="fill: #8b737d"/>
            </g>
            <g style="opacity: 0.30000000000000004">
              <path d="M112.24,152.44a3.23,3.23,0,0,0-.51.1,9,9,0,0,0-1,.34c-.19.08-.38.14-.54.22s-.34.13-.47.21l-.34.14-.13.07.14,0a2.51,2.51,0,0,0,.39,0,2.1,2.1,0,0,0,.52-.09,4.23,4.23,0,0,0,.58-.17,5.78,5.78,0,0,0,1-.52A3.7,3.7,0,0,0,112.24,152.44Z" style="fill: #8b737d"/>
            </g>
          </g>
          <path d="M117.38,154.23l-.82.09c-.53.07-1.28.15-2.18.28s-1.95.27-3.07.46l-3.51.59-3.49.69c-1.11.23-2.14.49-3,.71s-1.61.45-2.11.63a4.5,4.5,0,0,0-.56.26,1.44,1.44,0,0,0-.18.12l.19-.11c.13,0,.32-.11.58-.18.5-.15,1.25-.3,2.13-.49s1.93-.36,3-.58l3.5-.63,3.49-.65c1.12-.2,2.16-.42,3-.59l2.15-.43Z" style="fill: #161616"/>
          <path d="M154.91,154.23s13.13,2,18.07,3.83-.84,7.26-.84,7.26-6.06-1.28-7.19-1.71S154.91,154.23,154.91,154.23Z" style="fill: #dba194"/>
          <path d="M154.91,154.23l3.39.69,3.46.69c1.27.24,2.63.5,4,.78l2,.39,2,.41c.63.13,1.24.24,1.82.37l1.63.37c.51.12,1,.2,1.37.32l1.05.28.92.25-.89-.33-1-.35c-.4-.15-.86-.27-1.36-.41l-1.62-.43c-.58-.16-1.18-.29-1.81-.44-1.27-.28-2.62-.58-4-.84s-2.71-.51-4-.73-2.47-.4-3.49-.56-1.89-.26-2.49-.35Z" style="fill: #161616"/>
          <g>
            <g style="opacity: 0.30000000000000004">
              <path d="M176.51,147.14s0,.12,0,.33-.08.52-.12.89-.12.79-.17,1.24c0,.23-.09.45-.13.69a6.28,6.28,0,0,1-.15.7c-.06.22-.13.45-.19.68l-.27.64-.06.15-.08.14c-.06.09-.11.18-.16.27a2.13,2.13,0,0,1-.16.25c-.05.08-.12.15-.17.22s-.21.27-.31.38l-.28.27-.24.24.29-.18.33-.21a2.86,2.86,0,0,0,.39-.34l.21-.2.2-.25a3.29,3.29,0,0,0,.37-.57c.11-.22.23-.43.32-.66s.14-.48.22-.73.09-.49.15-.73.08-.48.09-.72c0-.46.06-.9,0-1.27s0-.68,0-.89A3.18,3.18,0,0,0,176.51,147.14Z" style="fill: #8b737d"/>
            </g>
            <g style="opacity: 0.30000000000000004">
              <path d="M174.09,141a2.28,2.28,0,0,0,.16.19l.41.49c.09.1.17.22.26.33s.17.26.26.38a3.55,3.55,0,0,1,.23.43,2,2,0,0,1,.17.46,2.73,2.73,0,0,1,.1.48c0,.17,0,.32,0,.49a7.69,7.69,0,0,1-.09.88c0,.26-.08.48-.1.64s0,.24,0,.24a4.73,4.73,0,0,0,.37-.82,2.59,2.59,0,0,0,.14-.42,3.86,3.86,0,0,0,.1-.49,5,5,0,0,0,0-.55,3.78,3.78,0,0,0-.1-.57,3,3,0,0,0-.21-.52,5.16,5.16,0,0,0-.29-.46,4.2,4.2,0,0,0-.66-.67,4,4,0,0,0-.53-.38Z" style="fill: #8b737d"/>
            </g>
            <g style="opacity: 0.30000000000000004">
              <path d="M168.4,138l-.3,0c-.19,0-.45-.09-.78-.12s-.7-.06-1.11-.07a11.39,11.39,0,0,0-1.29,0c-.22,0-.44.06-.65.12a2.82,2.82,0,0,0-.62.2,2.61,2.61,0,0,0-.55.3,2.91,2.91,0,0,0-.4.37,3.48,3.48,0,0,0-.47.66l-.15.26.21-.21c.14-.14.33-.33.57-.53a4.21,4.21,0,0,1,.41-.28,3.4,3.4,0,0,1,.51-.22,7.15,7.15,0,0,1,1.19-.25l1.24-.09,1.1-.06.79-.05Z" style="fill: #8b737d"/>
            </g>
            <g style="opacity: 0.30000000000000004">
              <path d="M160,143.21a1.38,1.38,0,0,0-.26.17,4.93,4.93,0,0,0-.59.57l-.33.45a4.68,4.68,0,0,0-.3.54,4.23,4.23,0,0,0-.25.62c-.08.21-.13.44-.19.66s-.08.45-.1.68,0,.44,0,.66,0,.42,0,.61.07.38.09.55a5.88,5.88,0,0,0,.22.79c.06.19.1.29.1.29s0-.11,0-.31,0-.47,0-.8c0-.16,0-.35,0-.53s0-.39,0-.59,0-.41,0-.63.07-.42.11-.63.09-.42.15-.63.13-.4.21-.58a5.82,5.82,0,0,1,.49-1,5.22,5.22,0,0,1,.45-.66C160,143.29,160,143.21,160,143.21Z" style="fill: #8b737d"/>
            </g>
            <g style="opacity: 0.30000000000000004">
              <path d="M159.29,148a3.17,3.17,0,0,0-.07.41,6.29,6.29,0,0,0-.06,1.07,6.16,6.16,0,0,0,.06.72c0,.13,0,.26.06.4s.06.26.09.4a5.35,5.35,0,0,0,.27.83c.06.14.13.27.2.41a2.22,2.22,0,0,0,.23.39l.27.37c.09.13.21.23.3.34a2.35,2.35,0,0,0,.33.3l.35.26a4.57,4.57,0,0,0,.72.38,3.51,3.51,0,0,0,.7.22,2.94,2.94,0,0,0,.59.12l.47,0h.39l-.38-.09-.45-.11a4,4,0,0,1-.55-.19,3.47,3.47,0,0,1-.63-.28,4,4,0,0,1-.64-.4c-.1-.09-.21-.16-.32-.25s-.18-.2-.28-.29a2.06,2.06,0,0,1-.28-.31l-.24-.34a2.6,2.6,0,0,1-.21-.36c-.07-.13-.14-.25-.19-.37-.1-.27-.23-.51-.3-.77s-.07-.26-.11-.38-.05-.25-.08-.37a6.38,6.38,0,0,1-.13-.69c0-.21-.06-.41-.07-.59s0-.33,0-.46S159.29,148,159.29,148Z" style="fill: #8b737d"/>
            </g>
            <g style="opacity: 0.30000000000000004">
              <path d="M166.91,155.18a4.78,4.78,0,0,0,.77.36,7.29,7.29,0,0,0,.82.26,7.41,7.41,0,0,0,1,.17l.51,0a4,4,0,0,0,.49,0,2.31,2.31,0,0,0,.47-.08l.2-.06.2-.08a1.1,1.1,0,0,0,.3-.19.66.66,0,0,0,.21-.19,2.07,2.07,0,0,0,.13-.19l-.19.13a.7.7,0,0,1-.23.11,1,1,0,0,1-.3.09,2.32,2.32,0,0,1-.38.07,3,3,0,0,1-.43,0c-.15,0-.31,0-.46,0s-.32,0-.48,0c-.32,0-.65-.08-1-.12l-.83-.13Z" style="fill: #8b737d"/>
            </g>
            <g style="opacity: 0.30000000000000004">
              <path d="M173.42,142.4a2.62,2.62,0,0,0-.28-.32,7,7,0,0,0-.84-.74,5,5,0,0,0-.61-.43,8.27,8.27,0,0,0-.73-.43c-.26-.12-.53-.26-.82-.37s-.58-.21-.87-.3-.61-.13-.91-.2-.6-.07-.88-.11a8,8,0,0,0-.84,0,4.38,4.38,0,0,0-.75.06,4.84,4.84,0,0,0-.62.09l-.48.11a4,4,0,0,0-.4.11l.42,0,.47,0c.19,0,.4,0,.63,0a6,6,0,0,1,.72,0,7.41,7.41,0,0,1,.8.07,8.55,8.55,0,0,1,.86.14c.28.06.58.11.86.2a7.69,7.69,0,0,1,.85.28c.28.09.54.21.8.32a14.27,14.27,0,0,1,1.37.72c.38.23.7.44.92.6Z" style="fill: #8b737d"/>
            </g>
            <g style="opacity: 0.30000000000000004">
              <path d="M174.2,149.37s0,.12-.06.32a3.34,3.34,0,0,1-.08.35l-.14.46a4.92,4.92,0,0,1-.21.5c-.07.18-.19.36-.28.54a5.77,5.77,0,0,1-.37.54,4.06,4.06,0,0,1-.43.5c-.16.15-.33.31-.5.44s-.36.24-.53.37l-.54.28c-.17.08-.34.16-.5.22l-.45.15c-.13.05-.25.07-.35.1l-.31.09h.32a4.71,4.71,0,0,0,.86-.1,5,5,0,0,0,1.15-.4,5.27,5.27,0,0,0,.59-.37,4.4,4.4,0,0,0,1-1,5.39,5.39,0,0,0,.37-.6,3.75,3.75,0,0,0,.24-.6,2.76,2.76,0,0,0,.15-.56,4.24,4.24,0,0,0,.07-.86C174.21,149.49,174.2,149.37,174.2,149.37Z" style="fill: #8b737d"/>
            </g>
          </g>
          <g id="EYEBROWS">
            <g>
              <path d="M171.93,130.56c-4,.16-12.71,1.22-15.61,2.85s-3.17,1.35-4.51,1a6.57,6.57,0,0,1-3-1.92c-.43-.5.55-3.48,3-5,.61-.38,4.44-.28,5.71-.21s11.18-1.49,11.84-1.42,7.08.21,7.79.35A67.7,67.7,0,0,1,188,130.63c2.75,1.71,4,2.42,4,2.42l1.41.71a93,93,0,0,0-9.68-3A79.83,79.83,0,0,0,171.93,130.56Z" style="fill: #292412"/>
              <path d="M185.41,132.48c1-1,9.1,2.11,9.74,2.19" style="fill: #292412"/>
              <path d="M189.86,134.26s5.79,1.42,7,1.35" style="fill: #292412"/>
              <path d="M149.85,127.93s-1.85,5.54,1.18,7" style="fill: #292412"/>
              <path d="M148,130.23s1,4,3,4.7" style="fill: #292412"/>
              <path d="M149.1,129.37s-.36,1.68.68,1.68" style="fill: #292412"/>
              <path d="M149,130.23c-.12-.2.12.47,0,.92s0,.51,0,.51l.47,0s.11-.56.06-.57a11.92,11.92,0,0,1-.43-1.17S149.11,130.48,149,130.23Z" style="fill: #292412"/>
            </g>
            <path d="M188.3,134.93s.48.16,1.21.37a3.63,3.63,0,0,1,.58.2l.63.24a6.31,6.31,0,0,1,.66.29c.22.12.46.21.67.34.43.25.87.5,1.27.76.2.13.41.23.6.34a3.87,3.87,0,0,0,.57.24,2.21,2.21,0,0,0,.49.17l.4.08.34.07-.33-.11-.39-.12a3.46,3.46,0,0,1-.47-.2,4.52,4.52,0,0,1-.54-.27l-.57-.36c-.4-.26-.83-.53-1.27-.78-.22-.13-.46-.22-.69-.34a5.32,5.32,0,0,0-.67-.28l-.66-.22a3.53,3.53,0,0,0-.59-.17C188.8,135,188.3,134.93,188.3,134.93Z" style="fill: #292412"/>
            <path d="M195.15,136.48l.44.29c.27.17.62.4,1,.65a6.07,6.07,0,0,1,.86.75,1.83,1.83,0,0,1,.13.16.67.67,0,0,1,.11.14l.07.12a1.31,1.31,0,0,0,0-.14.56.56,0,0,0-.07-.16,1.24,1.24,0,0,0-.1-.2,3.28,3.28,0,0,0-.36-.43,2.73,2.73,0,0,0-.48-.41,5.6,5.6,0,0,0-1-.59A3.94,3.94,0,0,0,195.15,136.48Z" style="fill: #292412"/>
            <path d="M113.55,135.61s5,.29,3.83-2.2-1.57-2.32-3.83-4-2.76-3.18-4.1-2.72.14.43-4,1.28-6.5,1.32-7.06,1.44-1.54,2-2.61,2.06-1.49.76-1.91,2,0,4.56,0,4.56l-.57,3.55,3.64-5.1a7,7,0,0,0,2,0c1.13-.16.75-.16,2.28-.87a8,8,0,0,1,4.18-.94c.88.23,1.16-.22,1.73,0s3.3-.13,3.7.26A8.91,8.91,0,0,0,113.55,135.61Z" style="fill: #292412"/>
          </g>
        </g>
        <g style="opacity: 0.2;mix-blend-mode: multiply">
          <path d="M241.38,143s2.2-7.49,5.9-5,4.66,7.63,4.45,12.19.74,16.63-.85,19.82a69,69,0,0,0-3,7.57s2.29-8.1,2.29-11.09-.32-5.35-1.16-6.62a49.32,49.32,0,0,1-3-7.46c-.42-1.38-1.16-5.85-3.7-5.75,0,0,2.76-1.38,4.29,3.1,0,0-1-4.25-2.33-5.72a1.38,1.38,0,0,0-.69-.47c-1.59-.32,2-1.92,3,1.39s.57,3.94.57,3.94,1.29-4-.57-5.9S241.38,143,241.38,143Z" style="fill: #dba194"/>
        </g>
        <path d="M250.14,166.52s0-.34,0-1c0-.31,0-.68,0-1.1s0-.91-.1-1.43a8.05,8.05,0,0,0-.11-.8,7.09,7.09,0,0,0-.18-.87,7.69,7.69,0,0,0-.29-.89c-.11-.29-.32-.61-.45-.87l-.24-.42-.2-.45c-.14-.29-.27-.6-.4-.92-.26-.63-.5-1.27-.74-1.92s-.49-1.3-.72-1.94-.46-1.27-.63-1.89a17.68,17.68,0,0,0-1.16-3.37,5.19,5.19,0,0,0-.38-.66,3.4,3.4,0,0,0-.43-.54,2.69,2.69,0,0,0-.89-.66,1.9,1.9,0,0,0-.69-.14h-.24l.24,0a1.88,1.88,0,0,1,.66.2,2.62,2.62,0,0,1,.81.69,5.12,5.12,0,0,1,.7,1.19,9.78,9.78,0,0,1,.56,1.56c.16.57.3,1.18.47,1.81s.39,1.27.61,1.93.45,1.3.7,2,.49,1.3.77,1.93q.19.47.42.93l.21.46.25.43.24.42c.06.14.16.26.21.4a6.53,6.53,0,0,1,.31.84,5.2,5.2,0,0,1,.21.82,8,8,0,0,1,.15.8c.09.5.12,1,.17,1.4s.07.79.09,1.09C250.12,166.18,250.14,166.52,250.14,166.52Z" style="fill: #bf8a99"/>
        <path d="M241.38,143a13.67,13.67,0,0,1,.68-1.69,12.08,12.08,0,0,1,1-1.82,4.6,4.6,0,0,1,1.95-1.73,2.07,2.07,0,0,1,1.43,0,3.05,3.05,0,0,1,.7.35c.21.14.43.33.66.5a9.13,9.13,0,0,1,2.15,2.75,16.54,16.54,0,0,1,1.57,7.49c0,.65,0,1.31,0,2s0,1.33,0,2c0,1.31.05,2.6.07,3.84s.07,2.45.09,3.6,0,2.22,0,3.22c0,.49,0,1,0,1.43s-.05.88-.07,1.28-.06.78-.09,1.13-.1.67-.13.95-.12.54-.16.76,0,.22-.07.31-.06.17-.08.24l-.17.45s.07-.15.19-.44c0-.07.06-.15.09-.24l.09-.3c.05-.22.14-.47.18-.76s.12-.6.17-1,.09-.73.14-1.13.06-.84.1-1.29,0-.94.08-1.44c.07-2,.07-4.33,0-6.82,0-1.25,0-2.54,0-3.85,0-.65,0-1.31,0-2s.06-1.32,0-2a16.81,16.81,0,0,0-1.67-7.65,8.79,8.79,0,0,0-2.29-2.83c-.23-.17-.44-.33-.69-.5a3.11,3.11,0,0,0-.76-.36,2.36,2.36,0,0,0-1.6.05,4.73,4.73,0,0,0-2,1.87,13,13,0,0,0-1,1.87c-.22.54-.37,1-.46,1.27S241.38,143,241.38,143Z" style="fill: #bf8a99"/>
        <g style="opacity: 0.2;mix-blend-mode: multiply">
          <path d="M235.53,154.58c-.63-.32,1.48-6.82,3.39-6.29s2.16,3,2.46,3.73,4.1,9,4.85,9.7,1.27,6.73.37,8.32-6.09,3.73-6.94,4.9-6.67-.1-7.73,1.18.53,2.56-.74,3.52-3.28,2-3.18.85a3.83,3.83,0,0,1,2-2.88c1.06-.53,4.13-3.09,2.12-7.57s-.85-5.44-.73-6.82,1.79-6.72,2.85-6.19.85,2.76,1.27,2.87.84-2.87,2-2.34,3.71.54,3.07-.95-.42-3.63-2.65-4.17C236.26,152,235.53,154.58,235.53,154.58Z" style="fill: #dba194"/>
        </g>
        <path d="M235.53,154.58a.15.15,0,0,1-.07-.11,1.25,1.25,0,0,1,0-.39,8.15,8.15,0,0,1,.36-1.35,15.7,15.7,0,0,1,.75-1.82,8.6,8.6,0,0,1,1.18-1.88,1.59,1.59,0,0,1,.84-.55.54.54,0,0,1,.22,0h.1l.13.05a2,2,0,0,1,.46.21,2.89,2.89,0,0,1,.72.67,4.54,4.54,0,0,1,.46.78c.23.52.39,1,.5,1.31a3.63,3.63,0,0,0,.2.5,4,4,0,0,1-.12-.52,8.61,8.61,0,0,0-.36-1.38,4.67,4.67,0,0,0-.43-.87,2.78,2.78,0,0,0-.77-.8,2.46,2.46,0,0,0-.53-.28l-.13,0-.09,0-.08,0a1,1,0,0,0-.35,0,2,2,0,0,0-1.08.68,7.58,7.58,0,0,0-1.21,2,13.48,13.48,0,0,0-.64,1.92,5.7,5.7,0,0,0-.21,1.4,1.32,1.32,0,0,0,.06.41A.2.2,0,0,0,235.53,154.58Z" style="fill: #bf8a99"/>
        <path d="M232.14,170l-.36-1c-.06-.15-.13-.33-.2-.53s-.1-.4-.16-.63a7.08,7.08,0,0,1-.18-.73c0-.26-.08-.54-.12-.82s0-.59,0-.89a5.22,5.22,0,0,1,.17-.93c.06-.33.2-.65.25-1,0-.18.05-.36.07-.52s.07-.35.11-.52a20.57,20.57,0,0,1,.63-2.14,14,14,0,0,1,.91-2.1,3.08,3.08,0,0,1,.62-.88c.13-.11.24-.13.29-.1a1.27,1.27,0,0,1,.21.15,1,1,0,0,1,.15.18,2.64,2.64,0,0,1,.38,1c.09.36.14.72.24,1.1a.88.88,0,0,0,0,.15.53.53,0,0,0,.09.16.24.24,0,0,0,.09.08l.06,0,0,0s.06,0,.06,0h.05l.11,0a.35.35,0,0,0,.09-.07,1.53,1.53,0,0,0,.29-.52c.13-.34.25-.66.39-1a2.19,2.19,0,0,1,.5-.75.45.45,0,0,1,.33-.13.53.53,0,0,1,.18,0l.21.08a4.28,4.28,0,0,0,1.6.22,2.1,2.1,0,0,0,1.19-.36.71.71,0,0,0,.24-.4,1,1,0,0,0,0-.34c-.06-.17-.1-.26-.1-.26s0,.09.08.27a.7.7,0,0,1-.28.66,1.93,1.93,0,0,1-1.14.27,4.44,4.44,0,0,1-1.5-.28l-.2-.09a.76.76,0,0,0-.26-.06.74.74,0,0,0-.52.16,2.59,2.59,0,0,0-.61.83c-.15.31-.28.63-.43.95a1.36,1.36,0,0,1-.22.4s0,0,0,0h.06s0,0,0,0l0-.07,0-.11a7,7,0,0,0-.65-2.21,1.66,1.66,0,0,0-.47-.45.58.58,0,0,0-.44-.05.94.94,0,0,0-.33.18,3.76,3.76,0,0,0-.74,1,15.66,15.66,0,0,0-.9,2.18,22.45,22.45,0,0,0-.62,2.19c0,.18-.07.36-.1.54s0,.37-.07.53c0,.33-.14.66-.2,1a5.49,5.49,0,0,0-.14,1c0,.31,0,.63,0,.93s.11.57.16.83.16.5.23.73.14.44.21.64l.22.52Z" style="fill: #bf8a99"/>
        <g style="opacity: 0.2;mix-blend-mode: multiply">
          <path d="M246.6,179.1s-2.88-.32-3.16,1.9.42,2.94-1.13,2.94-2.57-1.11-2.4-1.85C240.72,178.46,246.6,179.1,246.6,179.1Z" style="fill: #dba194"/>
        </g>
        <g style="opacity: 0.2;mix-blend-mode: multiply">
          <path d="M228.75,183.08c.71,1.28,3.25,2,3.25,2a15,15,0,0,0-3.25,11.15c.71,6.88,6.07,9.46,11.14,7.22s3.69-15.38,4.11-16.24c.29-.59,2-1.36,3-1.79a4.7,4.7,0,0,1-.48.64c-1.26,1.28-3,.43-2.11,7.25S244,206.94,233,206.52c-4.31-.17-6.47-2.17-7.52-4.54v0s0-.07,0-.11a2.67,2.67,0,0,1-.14-.36c-1-2.41-1.59-2.21-2,.89a1.5,1.5,0,0,1-.07.32c-.32,2.28-.64,4.92-.88,7.86l-3.46-3.73,3.81-22.78S228.05,181.8,228.75,183.08Z" style="fill: #dba194"/>
        </g>
      </g>
    </g>
  </g>
</svg>
