<svg id="Layer_1" data-name="Layer 1" xmlns="http://www.w3.org/2000/svg" width="3332" height="396" viewBox="0 0 3332 396">
  <defs>
    <style>
      .cls-1 {
        fill: #fff;
      }

      .cls-2 {
        fill: #1a1a1a;
      }
    </style>
  </defs>
  <title>Artboard 2 copy 7</title>
  <circle cx="208.35" cy="198.98" r="195.68"/>
  <ellipse class="cls-1" cx="205.58" cy="190.83" rx="157.91" ry="162.85" transform="translate(-3.38 377.96) rotate(-84.72)"/>
  <ellipse cx="205.58" cy="190.83" rx="152.94" ry="168.18" transform="translate(-46.76 313.33) rotate(-68.76)"/>
  <path class="cls-1" d="M366.38,135.87c5.59,96.89-62.67,179.64-152.46,184.81S46.81,251.51,41.23,154.62"/>
  <path d="M372.71,135.5A169.19,169.19,0,1,1,34.9,155"/>
  <g>
    <rect x="1646.69" y="314.98" width="124.55" height="50.47"/>
    <polygon points="653.22 365.44 694.9 365.44 674.06 305.71 653.22 365.44"/>
    <polygon points="2356.39 314.98 2356.39 365.44 2442.27 365.44 2413.05 314.98 2356.39 314.98"/>
    <polygon points="1963.55 333.59 2056.61 333.59 2010.7 215.71 1963.55 333.59"/>
    <path d="M2884.25,197.25c0-92.89,89.28-168.19,89.28-168.19H370s64.56,75.3,64.56,168.19S360,365.44,360,365.44H549.2L507.05,133h61.18l39,210.94L648,243h54.11l38.77,100.94L783.68,133.2h57.18l-42,232.24H925.94V133.2l167.89-.21V190.9H988v96.17h64.29v57.7H988v20.67h188.93V133h62V365.44h93.14V133h62V365.44h190.52V133h62V257.07h124.55V132.79h62V365.44h51.77L1978,133h62L2133,365.44h47.3V132.79h61.84V365.44h52.24V133h135.25q108.57,0,108.57,89.34,0,67.21-57.07,85.61l32.88,57.5h142.26V288.09L2542.49,133h72.79l72,101.33L2760.87,133H2832l-113.74,155.1v77.35h245.26S2884.25,290.14,2884.25,197.25Z"/>
    <path d="M2443.86,191.1h-87.47v66h86.85q37.43-.61,38.47-34.12Q2480.66,192.35,2443.86,191.1Z"/>
  </g>
  <g>
    <path d="M3225.53,110.65c-11.71,1.95-8.87,21.45-10,42s-11,58.3-27.51,56.58-8.53-32.84-9.64-85.63c-.73-34.86-4.91-77.64-31-72.57-12.64,2.46-.81,51.27,0,72.22,1.67,41.36-4.12,77.41-18.53,81.8s-13.06-21.33-10.2-50.84S3109.35,40,3105.5,15.3s-32.62-17.21-27.41,6.28,6,178.28-14.7,179.76-23-101.8-24.45-122.52,6-40.94-11.89-43.18c-15.75-2-25.47,39.67-18.29,138.09.88,12.07-2.89,24.23-2.52,37.47h-.11l.15,1.14c.06,1.41.18,2.83.35,4.26h.23l1.76,13c1.17,8-.43,13.94-2.59,18a33,33,0,0,0-11.2,21.35c-8.81-5.79-20.76-19.14-29-50.93-7.5-28.77-5.73-44.22-25.23-47.7-10.82-1.93-7,35.49-6.18,56.35,1.68,41.36,58.22,99.68,62.26,111.72,15.68,46.77,120,64.48,139.94,55.4,7.94-3.62,15.52-10.28,22.39-18.13l66.86-149c13.9-43.11,13.42-58.48,14.73-83C3242,116.68,3237.24,108.69,3225.53,110.65Z"/>
    <g>
      <path class="cls-1" d="M3048.35,273.09c57.13-19.27,70.1-11.5,97,15.58,0,0-30.85,15-51.42,10.23S3048.35,273.09,3048.35,273.09Z"/>
      <path d="M3120,284.09c-27.19,9.17-33.36,5.47-46.18-7.42,0,0,14.67-7.11,24.46-4.87S3120,284.09,3120,284.09Z"/>
    </g>
  </g>
  <g>
    <path class="cls-1" d="M381.09,185.52C248.26,17.18,120.58,62.36,42.88,158.44c0,0,85.41,136.17,158.75,132.16S381.09,185.52,381.09,185.52Z"/>
    <path d="M390,185.9C254.38,49.67,105.46,86.52,34,157.3c0,0,92.44,114.15,169.44,112.07S390,185.9,390,185.9Z"/>
    <path class="cls-1" d="M90.51,202.8s62.14,47.46,111.86,48.33S321.2,221.86,321.2,221.86"/>
    <path class="cls-2" d="M84.55,201.27s66.17,41.3,118.44,42.92,124.45-23.72,124.45-23.72"/>
    <path class="cls-1" d="M136.18,164.92c46.18,63.5,92,70.48,150.76,12.28,0,0-43.6-58.55-80.24-57.56S136.18,164.92,136.18,164.92Z"/>
  </g>
  <circle cx="227.02" cy="170" r="16.08"/>
  <circle cx="207.92" cy="178.44" r="11.02"/>
</svg>
