<svg id="Layer_1" data-name="Layer 1" xmlns="http://www.w3.org/2000/svg" width="556" height="800" viewBox="0 0 556 800">
  <defs>
    <style>
      .cls-1 {
        fill: #f79508;
      }

      .cls-2 {
        fill: #91ca17;
      }

      .cls-3 {
        fill: #f02701;
      }
    </style>
  </defs>
  <title>kempella_logo</title>
  <g>
    <g>
      <g>
        <path class="cls-1" d="M338.49,689.75a106.43,106.43,0,0,0-34.83-75.63,110.56,110.56,0,0,0-11.05-8.92c-5.76,11.67-8.65,20-7.61,27.3,2.67,18.53,31.76,52.26,42.75,59.27l-.15.14c-9.55,7.64-36.47,1.88-49.31-4.4,5.78,20.81,22.7,43.88,50,51.11A105.61,105.61,0,0,0,338.49,689.75Z"/>
        <path class="cls-1" d="M363.09,665.71q4-5.46,8.49-11.77c0-.15-.07-.3-.1-.45l.51-.65-.54.48a108.75,108.75,0,0,0-62.23-77.4l-2-.87c-1.27,2.83-5.28,11.11-9.93,20.6A121.51,121.51,0,0,1,311,606.53a116.76,116.76,0,0,1,28.09,134c2.36.23,4.8.36,7.3.36,32,0,51.44-27.14,51.44-53.42C389.3,696,343.16,700.93,363.09,665.71Z"/>
      </g>
      <path class="cls-1" d="M379.71,642.16c4.68-6.93,9.56-14.44,14.56-22.47a109.77,109.77,0,0,0-74.92-73.06q-3.72,9.23-7.6,18.17c.31.41.63.81.95,1.21.34.15.68.29,1,.45A119.38,119.38,0,0,1,379.71,642.16Z"/>
      <path class="cls-1" d="M412.47,439a121.81,121.81,0,0,1,51.13,28.94A459,459,0,0,0,475,419.21c-31.61-28.07-76.82-35.53-115.64-20.55-1.52,12.82-3.62,25.59-6.19,38.25A124,124,0,0,1,412.47,439Z"/>
      <path class="cls-1" d="M329.76,519.31c-.21.6-5.18,14-6.54,17.56a120.51,120.51,0,0,1,78.22,71c5-8.42,10.09-17.32,15.12-26.67A111.09,111.09,0,0,0,329.76,519.31Z"/>
      <path class="cls-1" d="M346.17,247.08a357.07,357.07,0,0,1,10.41,42.58,124.79,124.79,0,0,1,119.53,4.24,353.79,353.79,0,0,0-11.43-47.65A113.83,113.83,0,0,0,346.17,247.08Z"/>
      <path class="cls-1" d="M338.36,59.66S310.23,81,279,120.8c22.86,29.12,47.39,68.15,63.85,116a125,125,0,0,1,117-5.15C420.07,121.52,338.36,59.66,338.36,59.66Zm48.05,137.68a14.44,14.44,0,1,1,14.8-14.44A14.64,14.64,0,0,1,386.41,197.34Z"/>
      <path class="cls-1" d="M476.88,407.06a389.89,389.89,0,0,0,3.84-42.66C446.48,339,400,335.3,362.14,354.51c-.07,10.85-.63,21.73-1.62,32.59C399.74,373.94,444,381.1,476.88,407.06Z"/>
      <path class="cls-1" d="M413.65,502.12a112.49,112.49,0,0,0-72.85-16.37q-3.54,11.89-7.52,23.5a121.94,121.94,0,0,1,89.31,60.53c6.8-13.26,13.43-27.3,19.65-42A110,110,0,0,0,413.65,502.12Z"/>
      <path class="cls-1" d="M407.45,287a112.67,112.67,0,0,0-49.08,13.57A352.45,352.45,0,0,1,362,342.93a124.91,124.91,0,0,1,118.91,8.81,352.46,352.46,0,0,0-2.8-43.93A112.18,112.18,0,0,0,407.45,287Z"/>
      <path class="cls-1" d="M409.49,449a113,113,0,0,0-58.8-.82q-3.06,13.49-6.77,26.76a123.19,123.19,0,0,1,75.5,18.36,121.16,121.16,0,0,1,27.38,23.31c4.79-12,9.27-24.45,13.31-37.23A110.92,110.92,0,0,0,409.49,449Z"/>
    </g>
    <g>
      <g>
        <path class="cls-2" d="M218.09,689.75a106.51,106.51,0,0,1,34.83-75.63A111.83,111.83,0,0,1,264,605.2c5.76,11.67,9.18,19.78,8.27,27-2.35,18.72-32.42,52.51-43.42,59.52l.15.14c9.56,7.64,36.47,1.88,49.31-4.4-5.77,20.81-22.7,43.88-50,51.11A105.62,105.62,0,0,1,218.09,689.75Z"/>
        <path class="cls-2" d="M193.49,665.71c-2.68-3.64-5.52-7.57-8.48-11.77l.09-.45-.51-.65.55.48a108.73,108.73,0,0,1,62.23-77.4l2-.87c1.27,2.83,5.27,11.11,9.92,20.6a123.33,123.33,0,0,0-13.7,10.88,116.81,116.81,0,0,0-28.09,134c-2.36.23-4.79.36-7.3.36-32,0-51.44-27.14-51.44-53.42C167.29,696,213.42,700.93,193.49,665.71Z"/>
      </g>
      <path class="cls-2" d="M176.88,642.16c-4.68-6.93-9.57-14.44-14.57-22.47a109.81,109.81,0,0,1,74.92-73.06q3.74,9.23,7.61,18.17l-1,1.21c-.34.15-.68.29-1,.45A119.35,119.35,0,0,0,176.88,642.16Z"/>
      <path class="cls-2" d="M144.12,439A121.81,121.81,0,0,0,93,467.94a459,459,0,0,1-11.36-48.73c31.62-28.07,76.82-35.53,115.65-20.55,1.52,12.82,3.62,25.59,6.19,38.25A124,124,0,0,0,144.12,439Z"/>
      <path class="cls-2" d="M226.82,519.31c.21.6,5.18,14,6.55,17.56a120.53,120.53,0,0,0-78.23,71c-5-8.42-10.09-17.32-15.12-26.67A111.12,111.12,0,0,1,226.82,519.31Z"/>
      <path class="cls-2" d="M210.42,247.08A355.15,355.15,0,0,0,200,289.66,124.79,124.79,0,0,0,80.47,293.9,356.85,356.85,0,0,1,91.9,246.25,113.85,113.85,0,0,1,210.42,247.08Z"/>
      <path class="cls-2" d="M96.81,231.68a125,125,0,0,1,117,5.15c16.46-47.88,41-86.91,63.84-116C246.35,81,218.23,59.66,218.23,59.66S136.52,121.52,96.81,231.68Zm58.56-48.78a14.81,14.81,0,1,1,14.81,14.44A14.64,14.64,0,0,1,155.37,182.9Z"/>
      <path class="cls-2" d="M79.7,407.06a387.43,387.43,0,0,1-3.83-42.66c34.24-25.44,80.74-29.1,118.58-9.89q.11,16.28,1.61,32.59C156.84,373.94,112.55,381.1,79.7,407.06Z"/>
      <path class="cls-2" d="M142.94,502.12a112.46,112.46,0,0,1,72.84-16.37q3.56,11.89,7.52,23.5A121.94,121.94,0,0,0,134,569.78c-6.8-13.26-13.44-27.3-19.65-42A110,110,0,0,1,142.94,502.12Z"/>
      <path class="cls-2" d="M149.14,287a112.63,112.63,0,0,1,49.07,13.57,352.45,352.45,0,0,0-3.66,42.36,124.92,124.92,0,0,0-118.91,8.81,354.39,354.39,0,0,1,2.8-43.93A112.21,112.21,0,0,1,149.14,287Z"/>
      <path class="cls-2" d="M147.09,449a113,113,0,0,1,58.81-.82c2,9,4.31,17.92,6.77,26.76a123.16,123.16,0,0,0-75.5,18.36,120.94,120.94,0,0,0-27.38,23.31c-4.8-12-9.27-24.45-13.31-37.23A110.83,110.83,0,0,1,147.09,449Z"/>
    </g>
    <g>
      <path class="cls-3" d="M279.58,457.44c-24.08,0-48.4-2.54-67.22-7.62q2.92,12.78,6.42,25.32c32.78,6.13,85.8,6.3,119.48.38q3.54-12.67,6.5-25.6C327,454.94,303.44,457.44,279.58,457.44Z"/>
      <path class="cls-3" d="M279.66,489.82c-20.62,0-41.24-1.34-57.8-4q3.48,11.7,7.38,23.1c32.56-5.18,69.84-5.33,98.81-.4q3.75-11.06,7.14-22.37C319.05,488.6,299.36,489.82,279.66,489.82Z"/>
      <path class="cls-3" d="M279.74,415.12c-27.54,0-55.36-4.7-76.32-14,1.55,13.62,3.77,24.19,6.53,37.62,36.59,11.54,103.15,11.61,137.25,0,2.74-13.37,4.95-23.88,6.51-37.44C334,410.51,307,415.12,279.74,415.12Z"/>
      <path class="cls-3" d="M232.58,518.53q3,8.4,6.16,16.6c27.14-6.37,55-6.51,79.8-.33q3.16-8.25,6.18-16.69C297.53,513.72,263.09,513.87,232.58,518.53Z"/>
      <path class="cls-3" d="M242.43,544.53q3.84,9.6,7.84,18.86c18-7,37.65-7,56.49.26q4.13-9.54,8.09-19.45C292.3,538.81,267.13,538.94,242.43,544.53Z"/>
      <path class="cls-3" d="M264.31,594.19a35.69,35.69,0,0,1,28.56-.06q5-10.35,9.87-21.31c-16.21-6.1-33-6.18-48.45-.26C257.59,580,261,587.19,264.31,594.19Z"/>
      <path class="cls-3" d="M279.74,372.12c-28.68,0-57.66-5.09-78.89-15.21.07,9.83.55,22.69,1.39,32.52,39.33,20.53,114.19,20.88,151.44.67a9.21,9.21,0,0,0,1.22-.68c.84-9.8,1.32-22.63,1.4-32.43C336.42,367.08,308.25,372.12,279.74,372.12Z"/>
      <path class="cls-3" d="M268.68,603.17q5,10.07,9.89,19.43,4.92-9.37,9.92-19.48A25.41,25.41,0,0,0,268.68,603.17Z"/>
      <path class="cls-3" d="M338.28,240.8C322.9,194.87,300,160.43,278.57,132.5c-21.37,27.92-44.31,62.35-59.69,108.26C251.59,255.37,307.63,255.49,338.28,240.8Zm-59.71-58.86A14.06,14.06,0,1,1,264.51,196,14.08,14.08,0,0,1,278.57,181.94Z"/>
      <path class="cls-3" d="M279.74,317.12c-27.05,0-54.37-4.53-75.2-13.55A346.75,346.75,0,0,0,201,345.48a5,5,0,0,0,1,.8c39.24,20.68,114.4,21.09,151.75.82,0,0,1.45-.84,2.52-1.6a344.13,344.13,0,0,0-3.57-41.75C333,312.66,306.54,317.12,279.74,317.12Z"/>
      <path class="cls-3" d="M341.34,250.39c-16.6,7.61-39.12,11.41-61.9,11.41s-46-3.83-63.62-11.46c-3.87,12.74-7.14,29.09-9.62,43,39.22,18.14,108,18.28,144.77.11C348.48,279.51,345.22,263.14,341.34,250.39Z"/>
    </g>
  </g>
</svg>
